<svg xmlns="http://www.w3.org/2000/svg" xmlns:xlink="http://www.w3.org/1999/xlink" version="1.0" width="64.000000pt" height="64.000000pt" viewBox="0 0 64.000000 64.000000" preserveAspectRatio="xMidYMid meet" style="zoom: 1;"><g stroke="none" transform="translate(0.000000,64.000000) scale(0.100000,-0.100000)" fill="#ffffff"><path d="M300,623 c-182,-63 -270,-275 -186,-447 c65,-132 233,-204 378,-162 c52,15 56,18 62,53 c12,75 11,75 -44,46 c-125,-65 -273,-5 -325,131 c-35,92 4,208 93,270 c54,38 140,47 208,21 c25,-9 48,-15 51,-12 c3,4 2,26 -1,50 c-7,43 -9,45 -51,56 c-60,15 -131,13 -185,-6 "></path><path d="M368.499542,424 c-32,-61 -45,-67 -21,-9 c24,55 13,52 -24,-9 c-38,-64 -35,-91 15,-136 c43,-37 64,-38 103,-1 c39,37 41,86 5,151 c-24,43 -24,44 -18,12 c4,-23 -1,-53 -16,-93 c-13,-33 -25,-57 -28,-55 c-2,3 3,23 12,46 c16,41 20,101 8,132 c-6,14 -14,5 -36,-38 "></path><path d="M260 224 c0 -3 25 -16 55 -30 39 -18 55 -31 55 -45 0 -14 7 -19 25 -19 18 0 25 5 25 19 0 14 16 27 55 45 30 14 55 27 55 30 0 4 -61 6 -135 6 -74 0 -135 -2 -135 -6z"></path></g></svg>
