<?xml version="1.0" encoding="utf-8"?>
<!-- Generator: Adobe Illustrator 24.1.0, SVG Export Plug-In . SVG Version: 6.00 Build 0)  -->
<svg version="1.1" id="Layer_1" xmlns="http://www.w3.org/2000/svg" xmlns:xlink="http://www.w3.org/1999/xlink" x="0px" y="0px"
	 viewBox="0 0 800 200" style="enable-background:new 0 0 800 200;" xml:space="preserve">
<style type="text/css">
	.st0{clip-path:url(#SVGID_2_);fill:#9B0000;}
	.st1{clip-path:url(#SVGID_2_);fill:#161616;}
	.st2{clip-path:url(#SVGID_2_);}
	.st3{fill:#0D0706;}
	.st4{fill:#FCFCFB;}
	.st5{fill:#EC2224;}
	.st6{fill:#FFFFFF;}
	.st7{fill:#B6EEFF;}
	.st8{fill:#FFF87B;}
	.st9{fill:#CE8452;}
	.st10{fill:#B3FFBC;}
	.st11{fill:none;}
</style>
<g>
	<defs>
		<rect id="SVGID_1_" x="0" y="0" width="800" height="200"/>
	</defs>
	<clipPath id="SVGID_2_">
		<use xlink:href="#SVGID_1_"  style="overflow:visible;"/>
	</clipPath>
	<path class="st0" d="M236-63c4,0,156,339,160,339s488-48,488-48L839-26"/>
	<polyline class="st1" points="379,-21 505,246 -10,234 -10,-17 	"/>
	<g class="st2">
		<path class="st3" d="M555.28,60c0.24,0,0.48,0,0.72,0c4.39,1.27,8.61,3.01,12.91,4.52c5.31,1.86,10.59,3.79,15.88,5.69
			c5.36,1.93,10.72,3.84,16.08,5.77c2.76,1,5.52,1.98,8.28,2.97c1.02,0.37,1.14,0.53,1.15,1.63c0.02,1.67,0.02,1.68,1.66,1.33
			c7.88-1.64,15.77-3.26,23.65-4.9c1.68-0.35,1.78-0.29,2.43,1.27c0.64,1.53,1.28,3.06,1.93,4.59c0.35,0.82,0.42,0.87,1.31,0.72
			c5.09-0.9,10.18-1.79,15.27-2.68c7.72-1.36,15.43-2.73,23.14-4.11c1.23-0.22,1.48-0.06,1.69,1.19c0.78,4.64,1.63,9.26,2.53,13.92
			c0.78-2.79,1.48-5.55,2.23-8.3c0.31-1.14,0.69-1.36,1.84-1.05c7.79,2.11,15.6,4.19,23.39,6.28c5.43,1.46,10.86,2.93,16.3,4.35
			c0.41,0.11,0.87,0.13,1.11,0.57c0,0.43,0,0.87,0,1.3c-0.54,3.55-1.7,6.94-2.61,10.4c-1.46,5.58-2.98,11.14-4.48,16.71
			c-1.16,4.32-2.34,8.63-3.46,12.96c-0.28,1.07-0.7,1.28-1.9,0.96c-3.16-0.84-6.31-1.71-9.47-2.55c-6.45-1.73-12.9-3.47-19.36-5.19
			c-3.41-0.91-6.83-1.82-10.23-2.76c-0.85-0.24-1.68-0.28-2.56-0.12c-9.23,1.65-18.47,3.23-27.69,4.91
			c-1.17,0.21-1.46,0.02-1.65-1.17c-0.47-2.85-1-5.68-1.5-8.52c-0.04-0.25-0.03-0.53-0.25-0.74c-0.3-0.04-0.49,0.17-0.71,0.3
			c-9.07,5.49-18.12,11-27.17,16.53c-0.35,0.21-0.69,0.44-1.06,0.62c-0.67,0.34-1.06,0.25-1.34-0.43c-1.1-2.66-2.08-5.37-3.07-7.84
			c0.01,1.6,0.03,3.43-0.01,5.26c-0.01,0.53-0.33,0.83-0.84,0.94c-0.17,0.03-0.33,0.05-0.5,0.05c-2.16-0.09-4.32,0.09-6.48,0.18
			c-3.02,0.13-6.05,0.16-9.06,0.38c-1.39,0.1-2.78,0.09-4.17,0.13c-2.02,0.06-4.03,0.13-6.05,0.22c-3.04,0.13-6.1,0.15-9.14,0.38
			c-1.32,0.1-2.64,0.1-3.96,0.13c-2.02,0.05-4.03,0.13-6.05,0.21c-3.05,0.12-6.09,0.15-9.14,0.38c-1.39,0.1-2.78,0.09-4.17,0.13
			c-1.99,0.05-3.99,0.13-5.98,0.21c-2.71,0.11-5.42,0.14-8.13,0.38c-0.55,0.05-1.11,0.04-1.66,0.02c-0.85-0.03-1.07-0.3-0.87-1.15
			c0.25-1.05,0.54-2.1,0.83-3.14c0.42-1.47,0.42-1.47-1.09-1.85c-4.55-1.14-9.1-2.26-13.64-3.42c-0.79-0.2-1.53-0.2-2.33-0.01
			c-1.8,0.42-3.66,0.56-5.48,0.84c-9.29,1.42-18.58,2.8-27.88,4.2c-12.79,1.92-25.58,3.8-38.36,5.76c-2.84,0.44-5.68,0.91-8.55,1.15
			c-0.53,0-1.06,0-1.59,0c0-0.29,0-0.58,0-0.87c0.26-0.5,0.22-1.07,0.34-1.6c2.29-9.93,4.58-19.85,6.86-29.79
			c2.2-9.58,4.38-19.16,6.59-28.74c1.31-5.67,2.61-11.33,3.91-17c0.28-1.21,0.52-1.41,1.75-1.14c2.74,0.61,5.47,1.3,8.21,1.95
			c11.15,2.65,22.3,5.31,33.45,7.97c3.04,0.72,6.07,1.46,9.12,2.17c0.72,0.17,1.23,0.52,1.39,1.28c0.69,3.37,1.43,6.72,2.12,10.13
			c0.07-0.43,0.04-0.88,0.4-1.17c0.39-0.31,0.82-0.16,1.25-0.12c5.71,0.58,11.41,1.23,17.12,1.84c6.04,0.65,12.08,1.29,18.12,1.94
			c0.9,0.1,0.95,0.05,1.19-0.83c2.01-7.42,4.05-14.83,6.04-22.26c0.31-1.16,0.65-2.31,0.95-3.48
			C554.87,60.46,554.97,60.16,555.28,60z"/>
		<path class="st4" d="M606.63,88.02c2.26-0.53,4.52-1.06,6.78-1.59c4.33-1.02,8.67-2.04,13-3.06c2.89-0.68,5.78-1.36,8.67-2.04
			c0.89-0.21,0.92-0.2,1.25,0.58c0.69,1.66,1.37,3.32,2.06,4.98c1.45,3.47,2.91,6.93,4.37,10.39c0.07,0.17,0.16,0.33,0.25,0.49
			c0.05-0.01,0.1-0.03,0.15-0.04c-0.64-3.63-1.28-7.25-1.93-10.96c0.27-0.08,0.5-0.18,0.75-0.23c3.46-0.61,6.92-1.22,10.39-1.83
			c4.45-0.78,8.91-1.56,13.36-2.35c3.37-0.6,6.73-1.21,10.1-1.82c0.82-0.15,1.65-0.29,2.48-0.42c0.56-0.09,0.66-0.01,0.76,0.56
			c0.75,4.34,1.51,8.67,2.27,13.01c0.54,3.09,1.09,6.17,1.66,9.38c0.11-0.22,0.19-0.34,0.23-0.47c1.52-5.67,3.03-11.33,4.54-17
			c0.06-0.23,0.13-0.46,0.2-0.69c0.18-0.58,0.28-0.65,0.88-0.5c0.86,0.21,1.71,0.45,2.57,0.68c4.78,1.29,9.57,2.59,14.35,3.87
			c6.2,1.66,12.4,3.31,18.59,4.96c0.71,0.19,0.75,0.25,0.55,1.01c-0.84,3.14-1.7,6.28-2.54,9.43c-1.32,4.93-2.63,9.86-3.95,14.78
			c-0.99,3.7-1.99,7.39-2.99,11.09c-0.03,0.12-0.05,0.24-0.09,0.35c-0.17,0.46-0.25,0.52-0.74,0.4c-1.07-0.27-2.13-0.57-3.19-0.85
			c-4.88-1.31-9.76-2.61-14.64-3.91c-5.94-1.59-11.88-3.18-17.82-4.78c-0.2-0.05-0.4-0.15-0.67-0.25c0.17-0.74,0.34-1.45,0.52-2.22
			c-10.31,1.82-20.56,3.62-30.9,5.45c-0.62-3.49-1.23-6.89-1.85-10.39c-9.69,5.49-19.26,10.93-28.94,16.41
			c-0.15-0.28-0.31-0.5-0.41-0.75c-1.28-3.25-2.56-6.5-3.83-9.76c-1.61-4.1-3.21-8.21-4.81-12.31c-0.49-1.25-0.98-2.49-1.48-3.74
			c-0.05-0.13-0.14-0.24-0.21-0.36c-0.4-0.36-0.45-0.89-0.63-1.35c-1.5-3.82-2.95-7.66-4.47-11.47c-0.54-1.36-0.51-1.39,0.9-1.72
			c1.14-0.27,2.29-0.54,3.43-0.82C605.91,88.06,606.26,87.93,606.63,88.02z"/>
		<path class="st5" d="M606.63,88.02c-0.64,0.18-1.27,0.38-1.91,0.54c-1.23,0.31-2.46,0.59-3.73,0.89c0.55,1.41,1.08,2.76,1.61,4.12
			c1.18,3.03,2.36,6.07,3.53,9.1c0.1,0.26,0.14,0.55,0.21,0.83c-0.06,1.7-0.15,3.4-0.17,5.11c-0.06,5.21-0.09,10.42-0.16,15.63
			c-0.02,1.49-0.09,2.97-0.14,4.46c-0.02,0.56-0.08,0.61-0.63,0.63c-0.17,0.01-0.34,0-0.5,0c-5.62,0-11.25,0.01-16.87,0
			c-9.78-0.02-19.56-0.06-29.34-0.09c-3.96-0.01-7.93-0.03-11.89-0.05c-0.31,0-0.61-0.04-1.01-0.06c0.02-0.36,0-0.67,0.06-0.96
			c0.61-2.57,1.23-5.13,1.84-7.69c1.51-6.29,3.02-12.59,4.53-18.88c1.05-4.38,2.09-8.77,3.14-13.15c1.63-6.83,3.24-13.67,4.87-20.5
			c0.27-1.12,0.4-1.09,1.35-0.77c8.97,3,17.94,5.98,26.92,8.95c5.69,1.89,11.38,3.76,17.07,5.64c0.09,0.03,0.18,0.06,0.27,0.09
			c0.75,0.27,0.91,0.47,0.91,1.27c0.01,1.37,0,2.74,0,4.11C606.59,87.49,606.61,87.76,606.63,88.02z"/>
		<path class="st5" d="M508.48,122.79c-0.85,0.11-1.7,0.25-2.55,0.33c-3.1,0.32-6.19,0.61-9.29,0.92c-2.93,0.29-5.86,0.58-8.79,0.87
			c-2.38,0.24-4.76,0.47-7.14,0.72c-3,0.31-6,0.64-8.99,0.95c-2.14,0.22-4.29,0.42-6.43,0.64c-3.12,0.32-6.24,0.65-9.35,0.97
			c-2.24,0.23-4.48,0.46-6.72,0.69c-0.19,0.02-0.37,0-0.61,0c0-0.36-0.04-0.66,0.01-0.95c0.84-4.84,1.69-9.67,2.55-14.51
			c0.75-4.25,1.52-8.49,2.27-12.73c0.89-5.07,1.77-10.15,2.66-15.22c0.79-4.51,1.6-9.01,2.39-13.52c0.27-1.56,0.53-3.12,0.8-4.68
			c0.02-0.14,0.07-0.28,0.13-0.49c0.22,0.01,0.45,0,0.67,0.05c3.61,0.78,7.21,1.56,10.82,2.35c4.73,1.03,9.46,2.05,14.19,3.07
			c3.68,0.8,7.35,1.6,11.03,2.4c2.48,0.54,4.96,1.11,7.45,1.62c0.6,0.12,0.89,0.35,1.01,0.98c0.67,3.68,1.38,7.35,2.07,11.02
			c0.62,3.27,1.24,6.55,1.85,9.82c0.26,1.37,0.51,2.73,0.76,4.1c0.03,0.16,0.1,0.31,0.15,0.47c0.28,0.29,0.15,0.64,0.1,0.96
			c-0.82,5.53-1.78,11.03-2.68,16.55c-0.02,0.12-0.04,0.24-0.06,0.35c-0.24,1.44-0.29,1.61,1.14,1.9
			C508.14,122.45,508.38,122.53,508.48,122.79z"/>
		<path class="st4" d="M508.48,122.79c-0.46-0.12-0.92-0.26-1.39-0.37c-0.74-0.18-0.8-0.25-0.69-1.04c0.09-0.66,0.2-1.32,0.31-1.98
			c0.47-2.85,0.95-5.7,1.42-8.55c0.36-2.19,0.72-4.38,1.08-6.58c0.09-0.54,0.14-1.08,0.21-1.63c0.14-0.7,0.3-1.4,0.42-2.11
			c0.67-3.98,1.33-7.97,1.99-11.96c0.08-0.47,0.14-0.95,0.21-1.42c0.08-0.51,0.23-0.64,0.7-0.58c2.58,0.31,5.17,0.63,7.75,0.94
			c2.21,0.26,4.42,0.49,6.63,0.75c2.75,0.32,5.5,0.66,8.25,0.99c2.28,0.27,4.56,0.52,6.84,0.78c2.28,0.26,4.55,0.53,6.83,0.8
			c0.33,0.04,0.66,0.07,1.03,0.1c0,0.34,0.04,0.63-0.01,0.9c-0.68,3.69-1.39,7.38-2.07,11.08c-0.75,4.05-1.48,8.09-2.23,12.14
			c-0.75,4.02-1.5,8.04-2.25,12.06c-0.2,1.08-0.39,2.17-0.6,3.25c-0.11,0.59-0.18,0.64-0.76,0.5c-2.19-0.53-4.37-1.07-6.56-1.6
			c-5.63-1.36-11.26-2.71-16.9-4.07c-3.26-0.78-6.52-1.56-9.78-2.33C508.76,122.83,508.62,122.82,508.48,122.79z"/>
		<path class="st3" d="M629.05,102.19c1.12,0.69,2.2,1.36,3.28,2.02c2.13,1.29,4.27,2.57,6.4,3.86c0.84,0.5,1.7,0.87,2.72,0.55
			c0.38-0.12,0.42-0.05,0.64,0.61c-0.21,0.12-0.43,0.26-0.66,0.37c-1.09,0.55-2.2,1.06-3.27,1.65c-0.47,0.26-0.82,0.23-1.25-0.05
			c-3.13-1.96-6.26-3.91-9.39-5.86c-0.35-0.22-0.69-0.44-1.03-0.65c-1.03-0.64-1.71-0.56-2.7,0.34c0.11,0.31,0.21,0.65,0.34,0.97
			c0.83,2.04,1.66,4.09,2.5,6.12c0.21,0.51,0.45,1.01,0.73,1.48c0.47,0.78,1.06,1.03,1.95,0.84c0.42-0.09,0.82-0.25,1.24-0.36
			c0.22-0.06,0.43-0.07,0.56,0.17c0.13,0.24,0.15,0.46-0.13,0.61c-0.15,0.08-0.3,0.15-0.45,0.23c-2.6,1.3-5.19,2.59-7.78,3.9
			c-0.32,0.16-0.62,0.36-0.94,0.53c-0.2,0.11-0.43,0.19-0.57-0.06c-0.12-0.22-0.28-0.48-0.02-0.72c0.11-0.1,0.23-0.17,0.35-0.25
			c0.29-0.21,0.58-0.42,0.88-0.63c0.85-0.6,1.12-1.42,0.84-2.4c-0.24-0.85-0.48-1.71-0.81-2.53c-1.67-4.21-3.36-8.41-5.05-12.61
			c-0.49-1.22-1-2.44-1.51-3.65c-0.13-0.31-0.3-0.6-0.46-0.89c-0.62-1.1-1.55-1.51-2.79-1.28c-0.28,0.05-0.57,0.09-0.85,0.14
			c-0.35,0.06-0.53-0.1-0.64-0.42c-0.09-0.27,0-0.38,0.26-0.46c1.46-0.4,2.91-0.81,4.36-1.22c2.23-0.63,4.46-1.28,6.71-1.86
			c1.58-0.41,3.2-0.56,4.84-0.29c2.8,0.45,4.62,2.46,5.27,5.13c0.56,2.33-0.34,4.07-2.02,5.54
			C630.12,101.46,629.59,101.79,629.05,102.19z"/>
		<path class="st3" d="M707.66,122.66c-0.66,0.06-0.76,0.03-1-0.5c-0.44-0.93-0.84-1.88-1.26-2.82c-2-4.51-3.99-9.02-5.99-13.53
			c-1.04-2.34-2.06-4.69-3.1-7.03c-0.07-0.15-0.15-0.29-0.27-0.54c-0.11,0.23-0.22,0.38-0.26,0.54c-1.23,4.63-2.46,9.25-3.67,13.88
			c-0.19,0.74-0.3,1.5-0.37,2.26c-0.11,1.07,0.26,1.93,1.3,2.41c0.28,0.13,0.57,0.26,0.85,0.39c0.51,0.24,0.54,0.35,0.16,0.99
			c-2.83-0.76-5.69-1.53-8.59-2.31c0.04-0.27,0.08-0.47,0.12-0.74c0.37,0.02,0.7,0.05,1.02,0.05c0.43,0,0.86,0,1.28-0.03
			c0.68-0.06,1.2-0.43,1.47-1.02c0.4-0.87,0.77-1.76,1.02-2.67c1.29-4.71,2.54-9.43,3.8-14.15c0.15-0.58,0.34-1.15,0.45-1.74
			c0.06-0.34,0.08-0.74-0.06-1.04c-0.47-1.01-1.06-1.93-2.25-2.27c-0.61-0.17-0.63-0.38-0.19-0.94c1.9,0.51,3.82,1.03,5.74,1.53
			c0.43,0.11,0.64,0.38,0.79,0.75c0.78,1.78,1.55,3.55,2.33,5.33c2.06,4.69,4.12,9.38,6.18,14.07c0.18,0.41,0.37,0.82,0.62,1.39
			c0.32-1.18,0.6-2.17,0.87-3.18c0.86-3.26,1.73-6.52,2.56-9.79c0.17-0.69,0.22-1.41,0.27-2.13c0.06-0.98-0.47-1.62-1.31-2.04
			c-0.3-0.15-0.61-0.27-0.92-0.4c-0.27-0.11-0.47-0.25-0.36-0.59c0.11-0.34,0.37-0.34,0.64-0.28c0.74,0.19,1.48,0.39,2.22,0.59
			c1.71,0.46,3.42,0.92,5.13,1.38c0.16,0.04,0.32,0.09,0.48,0.13c0.24,0.06,0.39,0.19,0.35,0.46c-0.04,0.28-0.2,0.43-0.49,0.41
			c-0.21-0.01-0.43-0.03-0.64-0.06c-1.27-0.17-2.47,0.22-2.98,1.66c-0.5,1.42-0.96,2.86-1.36,4.31c-1.06,3.85-2.07,7.72-3.11,11.58
			c-0.45,1.66-0.9,3.33-1.35,4.99C707.72,122.19,707.7,122.41,707.66,122.66z"/>
		<path class="st3" d="M669.01,113.98c-0.25-0.6-0.21-0.72,0.3-0.89c0.34-0.11,0.69-0.19,1.03-0.32c0.81-0.32,1.05-0.79,0.71-1.58
			c-0.36-0.81-0.78-1.59-1.23-2.35c-0.51-0.84-1.09-1.63-1.62-2.46c-0.25-0.39-0.51-0.54-1.01-0.44c-2.8,0.52-5.6,1-8.4,1.49
			c-0.68,0.12-0.69,0.12-0.82,0.78c-0.32,1.59-0.64,3.19-0.92,4.79c-0.18,0.98,0.33,1.66,1.32,1.82c0.49,0.08,0.99,0.09,1.56,0.15
			c0.04,0.18,0.07,0.38,0.11,0.58c-0.11,0.05-0.17,0.09-0.24,0.11c-2.09,0.39-4.18,0.77-6.28,1.15c-0.23,0.04-0.48,0.07-0.71,0.05
			c-0.14-0.01-0.37-0.11-0.39-0.21c-0.03-0.16,0.06-0.35,0.13-0.52c0.02-0.05,0.12-0.08,0.18-0.1c1.12-0.36,1.68-1.21,1.97-2.29
			c0.42-1.55,0.88-3.08,1.25-4.64c1.18-5.03,2.32-10.07,3.48-15.11c0.33-1.42,0.67-2.84,0.99-4.26c0.06-0.27,0.12-0.52,0.45-0.57
			c0.31-0.05,0.57,0.06,0.75,0.32c0.15,0.22,0.29,0.44,0.44,0.66c4.22,6.33,8.44,12.66,12.67,18.99c0.36,0.54,0.78,1.03,1.18,1.54
			c0.51,0.65,1.22,0.89,2.02,0.94c0.07,0,0.14,0,0.22,0c0.3-0.01,0.44,0.19,0.46,0.44c0.03,0.29-0.18,0.34-0.41,0.38
			c-1.2,0.21-2.4,0.44-3.6,0.66c-1.53,0.28-3.06,0.56-4.59,0.83C669.66,113.97,669.32,113.96,669.01,113.98z"/>
		<path class="st4" d="M598.03,93.65c-0.84,0.13-1.15-0.09-1.31-0.88c-0.16-0.8-0.33-1.59-0.5-2.39c-0.31-1.49-1.19-2.53-2.5-3.25
			c-1.27-0.7-2.68-1.03-4.05-1.44c-0.5-0.15-1.01-0.28-1.6-0.45c-0.08,0.19-0.19,0.37-0.22,0.56c-0.1,0.78-0.17,1.57-0.25,2.35
			c-0.29,2.9-0.58,5.8-0.86,8.7c-0.17,1.74-0.29,3.48-0.46,5.21c-0.23,2.33-0.49,4.66-0.72,6.99c-0.13,1.4-0.23,2.81-0.31,4.22
			c-0.02,0.42,0.08,0.85,0.13,1.28c0.11,0.93,0.66,1.54,1.51,1.83c0.79,0.27,1.6,0.48,2.41,0.69c0.49,0.13,0.74,0.58,0.5,1
			c-0.06,0.11-0.27,0.18-0.41,0.18c-0.98-0.05-1.96-0.11-2.94-0.18c-1.22-0.09-2.43-0.18-3.65-0.28c-1.55-0.12-3.1-0.26-4.64-0.37
			c-1.07-0.08-2.15-0.13-3.22-0.21c-0.47-0.03-0.94-0.09-1.48-0.13c0-0.24,0-0.45,0-0.66c0-0.31,0.12-0.48,0.46-0.51
			c0.86-0.07,1.71-0.15,2.57-0.25c1.64-0.19,2.47-0.87,2.85-2.48c0.31-1.3,0.52-2.63,0.69-3.95c0.37-2.75,0.69-5.5,1.01-8.25
			c0.31-2.63,0.61-5.27,0.92-7.9c0.34-2.92,0.68-5.84,1.04-8.75c0.04-0.34-0.02-0.47-0.34-0.56c-2.05-0.57-4.09-1.2-6.23-1.38
			c-1.55-0.13-2.92,0.35-3.82,1.69c-0.56,0.83-1.01,1.73-1.48,2.63c-0.3,0.59-1.05,0.78-1.54,0.34c-0.27-0.24-0.21-0.55-0.14-0.87
			c0.44-1.94,0.88-3.87,1.32-5.81c0.14-0.6,0.26-1.21,0.38-1.77c0.4-0.23,0.72-0.06,1.03,0.03c4.19,1.2,8.37,2.41,12.56,3.61
			c4.14,1.19,8.28,2.38,12.43,3.57c0.14,0.04,0.27,0.09,0.41,0.12c0.35,0.09,0.52,0.3,0.52,0.67c-0.03,2.33-0.05,4.66-0.08,6.99
			C598.07,93.61,598.04,93.63,598.03,93.65z"/>
		<path class="st4" d="M463.58,113.05c-0.02-0.13-0.05-0.22-0.05-0.31c-0.01-1.14-0.07-1.05,0.98-1.26
			c1.76-0.36,3.15-1.28,4.09-2.81c0.89-1.45,1.8-2.9,2.57-4.41c4.29-8.48,8.53-16.98,12.79-25.47c0.08-0.15,0.14-0.3,0.22-0.45
			c0.11-0.22,0.11-0.6,0.46-0.55c0.36,0.05,0.78,0.07,0.98,0.49c0.22,0.45,0.45,0.9,0.68,1.35c1.22,2.48,2.42,4.96,3.64,7.43
			c1.39,2.82,2.79,5.63,4.18,8.45c1.82,3.68,3.62,7.36,5.46,11.03c0.44,0.88,0.92,1.74,1.45,2.57c0.55,0.85,1.31,1.45,2.33,1.68
			c0.92,0.21,0.92,0.22,0.77,1.23c-0.06,0.02-0.12,0.07-0.19,0.07c-1.53,0.04-3.07,0.07-4.6,0.1c-1.22,0.02-2.45,0.02-3.67,0.05
			c-1.1,0.03-2.2,0.09-3.3,0.14c-0.12,0.01-0.24,0.01-0.36,0c-0.47-0.04-0.57-0.13-0.59-0.54c-0.03-0.54,0.06-0.67,0.52-0.76
			c0.54-0.1,1.09-0.18,1.62-0.3c1.01-0.23,1.29-0.57,1.26-1.59c-0.02-0.9-0.3-1.74-0.66-2.56c-0.93-2.08-1.88-4.15-2.81-6.22
			c-0.19-0.42-0.45-0.62-0.93-0.63c-2.01-0.07-4.02-0.18-6.03-0.28c-1.74-0.09-3.49-0.19-5.23-0.29c-0.5-0.03-1-0.07-1.5-0.1
			c-0.78-0.04-0.94,0.06-1.26,0.79c-0.83,1.94-1.67,3.87-2.47,5.82c-0.29,0.71-0.56,1.43-0.76,2.17c-0.11,0.4-0.11,0.86-0.07,1.28
			c0.08,0.83,0.55,1.42,1.32,1.74c0.76,0.31,1.56,0.45,2.38,0.48c0.54,0.02,0.62,0.13,0.62,0.73c0,0.52-0.1,0.65-0.62,0.66
			c-1.85,0.01-3.7,0-5.55,0.01c-0.31,0-0.66-0.12-0.92,0.23c-0.08,0.1-0.36,0.05-0.55,0.05c-1.47,0-2.93,0-4.4,0
			C464.8,113.05,464.23,113.05,463.58,113.05z"/>
		<path class="st3" d="M516.07,93.98c-0.04-0.75,0.06-0.9,0.66-0.84c0.98,0.09,1.95,0.24,2.92,0.36c0.38,0.05,0.76,0.1,1.14,0.11
			c0.99,0.02,1.76,0.42,2.26,1.29c0.52,0.92,1.02,1.84,1.52,2.77c1.96,3.62,3.92,7.25,5.88,10.87c0.86,1.58,1.72,3.16,2.58,4.73
			c0.1,0.18,0.22,0.36,0.42,0.69c0.12-0.52,0.23-0.89,0.29-1.27c0.68-3.84,1.35-7.68,2.01-11.52c0.09-0.54,0.15-1.09,0.2-1.64
			c0.09-1.14-0.33-2.01-1.4-2.51c-0.39-0.18-0.78-0.37-1.19-0.5c-0.32-0.1-0.51-0.25-0.45-0.61c0.06-0.37,0.2-0.5,0.67-0.46
			c0.62,0.05,1.24,0.13,1.85,0.21c2.01,0.28,4.02,0.56,6.04,0.84c0.21,0.03,0.42,0.08,0.64,0.09c0.3,0.02,0.51,0.12,0.52,0.46
			c0.01,0.4-0.07,0.56-0.5,0.64c-0.37,0.08-0.76,0.08-1.14,0.12c-1.56,0.15-2.34,0.79-2.69,2.32c-0.38,1.68-0.71,3.37-1.02,5.06
			c-0.68,3.69-1.33,7.39-1.99,11.09c-0.36,2.02-0.71,4.05-1.06,6.06c-0.78,0.25-1.02,0.17-1.37-0.48
			c-2.09-3.86-4.17-7.71-6.25-11.57c-1.94-3.58-3.87-7.17-5.81-10.75c-0.06-0.1-0.13-0.19-0.25-0.36c-0.1,0.48-0.19,0.87-0.26,1.26
			c-0.55,3.28-1.1,6.56-1.65,9.84c-0.11,0.66-0.22,1.32-0.36,1.98c-0.23,1.14-0.25,2.29-0.21,3.44c0.03,0.85,0.38,1.52,1.22,1.86
			c0.33,0.14,0.66,0.28,0.98,0.46c0.51,0.28,0.53,0.58,0.08,1.07c-2.38-0.52-4.76-1.04-7.14-1.56c-0.21-0.05-0.42-0.09-0.63-0.13
			c-0.31-0.07-0.44-0.28-0.4-0.59c0.03-0.29,0.22-0.41,0.49-0.41c0.34,0,0.67,0.01,1.01,0c1.31-0.03,1.89-0.45,2.21-1.72
			c0.24-0.95,0.41-1.92,0.57-2.88c0.82-4.78,1.63-9.57,2.44-14.36c0.21-1.24-0.54-2.61-1.71-3.09
			C516.83,94.21,516.46,94.11,516.07,93.98z"/>
		<path class="st4" d="M623.91,92.06c2.02,0.06,3.6,0.85,4.53,2.67c0.35,0.69,0.64,1.46,0.77,2.22c0.31,1.71-0.35,3.08-1.69,4.16
			c-1.08,0.87-2.3,1.46-3.55,2.02c-0.95,0.43-0.95,0.41-1.35-0.58c-1.03-2.58-2.07-5.15-3.11-7.72c-0.54-1.33-0.41-1.6,0.92-2.07
			C621.56,92.36,622.73,92.11,623.91,92.06z"/>
		<path class="st4" d="M660.92,94.79c2.09,3.14,4.07,6.29,6.15,9.51c-0.37,0.11-0.58,0.19-0.81,0.23c-2.38,0.42-4.75,0.83-7.13,1.25
			c-0.67,0.12-0.75,0.03-0.6-0.66c0.74-3.31,1.48-6.62,2.22-9.94C660.78,95.07,660.84,94.96,660.92,94.79z"/>
		<path class="st5" d="M483.87,83.61c2.16,4.73,4.26,9.31,6.42,14.02c-4.16-0.28-8.21-0.55-12.27-0.82
			c-0.17-0.45,0.05-0.76,0.2-1.07c0.78-1.7,1.57-3.39,2.36-5.08C481.65,88.37,482.73,86.07,483.87,83.61z"/>
	</g>
	<g class="st2">
		<g>
			<path class="st6" d="M86.2,31.1V16.07h1.62V31.1H86.2z M93.94,31.1V16.07h1.62l10.71,6.66v1.8L95.56,31.1H93.94z M103.57,24.37
				c0.46-0.28,0.88-0.51,1.28-0.7c-0.4-0.2-0.82-0.45-1.28-0.74L95.56,18v11.23L103.57,24.37z"/>
			<path class="st7" d="M124.04,32.81V19.67h1.62v1.89h0.32l-0.32,0.38c0-0.76,0.25-1.35,0.74-1.79c0.49-0.44,1.15-0.66,1.98-0.66
				c1,0,1.78,0.33,2.36,0.99s0.86,1.55,0.86,2.68v2.9c0,1.14-0.29,2.04-0.86,2.7c-0.58,0.66-1.36,0.99-2.36,0.99
				c-0.82,0-1.47-0.22-1.97-0.67s-0.75-1.04-0.75-1.78l0.32,0.38h-0.36l0.04,2.25v2.88H124.04z M127.83,28.35
				c0.68,0,1.21-0.2,1.58-0.61c0.37-0.41,0.56-1,0.56-1.76v-2.7c0-0.77-0.19-1.36-0.56-1.76c-0.37-0.41-0.9-0.61-1.58-0.61
				c-0.67,0-1.2,0.21-1.59,0.63s-0.58,1-0.58,1.75v2.7c0,0.74,0.19,1.33,0.58,1.75C126.63,28.14,127.16,28.35,127.83,28.35z"/>
			<path class="st7" d="M135.18,29.57v-9.9h1.58v1.89h0.38l-0.52,1.17c0-1.07,0.23-1.88,0.69-2.42c0.46-0.55,1.15-0.82,2.06-0.82
				c1.04,0,1.88,0.33,2.49,0.98c0.62,0.65,0.93,1.54,0.93,2.66v0.59h-1.62v-0.45c0-0.77-0.19-1.36-0.57-1.78
				c-0.38-0.42-0.92-0.63-1.61-0.63c-0.68,0-1.22,0.21-1.61,0.64c-0.39,0.43-0.58,1.02-0.58,1.77v6.3H135.18z"/>
			<path class="st7" d="M149.38,29.75c-0.78,0-1.46-0.15-2.03-0.45c-0.58-0.3-1.02-0.73-1.32-1.31c-0.31-0.57-0.46-1.24-0.46-2.02
				v-2.7c0-0.78,0.15-1.46,0.46-2.03c0.31-0.57,0.75-1,1.32-1.3c0.58-0.3,1.25-0.45,2.03-0.45c0.78,0,1.46,0.15,2.03,0.45
				c0.58,0.3,1.02,0.73,1.32,1.3c0.31,0.57,0.46,1.24,0.46,2.01v2.72c0,0.78-0.15,1.46-0.46,2.02c-0.31,0.57-0.75,1.01-1.32,1.31
				C150.84,29.6,150.16,29.75,149.38,29.75z M149.38,28.31c0.71,0,1.25-0.2,1.63-0.6c0.38-0.4,0.57-0.98,0.57-1.74v-2.7
				c0-0.76-0.19-1.33-0.57-1.74c-0.38-0.4-0.92-0.6-1.63-0.6s-1.25,0.2-1.63,0.6c-0.38,0.4-0.57,0.98-0.57,1.74v2.7
				c0,0.76,0.19,1.33,0.57,1.74C148.13,28.11,148.67,28.31,149.38,28.31z"/>
			<path class="st7" d="M158.74,29.57v-8.23h-2.88v-1.48h2.88v-0.95c0-0.77,0.23-1.37,0.7-1.82c0.47-0.44,1.1-0.67,1.91-0.67h3.06
				v1.48h-3.06c-0.31,0-0.56,0.09-0.73,0.26s-0.26,0.42-0.26,0.73v0.97h4.05v1.48h-4.05v8.23H158.74z"/>
			<path class="st7" d="M167.02,29.57V28.1h3.51v-6.95h-3.06v-1.48h4.68v8.42h3.33v1.48H167.02z M170.98,17.96
				c-0.36,0-0.65-0.1-0.85-0.29s-0.31-0.45-0.31-0.77c0-0.32,0.11-0.59,0.32-0.79c0.22-0.2,0.5-0.31,0.85-0.31h0.36
				c0.35,0,0.63,0.1,0.85,0.31s0.32,0.47,0.32,0.79c0,0.32-0.11,0.58-0.32,0.77s-0.5,0.29-0.85,0.29H170.98z"/>
			<path class="st7" d="M182.95,29.57c-0.88,0-1.57-0.25-2.1-0.77c-0.52-0.51-0.78-1.18-0.78-2.02v-8.87h-2.97v-1.48h4.59v10.35
				c0,0.41,0.11,0.73,0.34,0.96c0.23,0.23,0.53,0.35,0.92,0.35h3.33v1.48H182.95z"/>
			<path class="st7" d="M192.58,29.75c-0.77,0-1.44-0.16-2.02-0.47c-0.58-0.31-1.02-0.75-1.33-1.32s-0.47-1.23-0.47-1.99v-2.7
				c0-0.76,0.16-1.42,0.47-1.99c0.31-0.57,0.76-1.01,1.33-1.32c0.58-0.31,1.25-0.47,2.02-0.47s1.44,0.16,2.02,0.47
				s1.02,0.75,1.33,1.32c0.31,0.57,0.47,1.23,0.47,1.99v1.75h-6.05v0.95c0,0.79,0.19,1.39,0.57,1.8c0.38,0.41,0.93,0.61,1.67,0.61
				c0.62,0,1.12-0.11,1.48-0.33c0.37-0.22,0.59-0.55,0.68-1h1.62c-0.11,0.83-0.5,1.48-1.19,1.97
				C194.49,29.51,193.62,29.75,192.58,29.75z M194.81,23.27c0-0.79-0.19-1.4-0.57-1.81s-0.93-0.62-1.67-0.62s-1.29,0.21-1.67,0.62
				s-0.57,1.02-0.57,1.81v0.52h4.59l-0.13,0.14V23.27z"/>
			<path class="st6" d="M203.2,29.75c-0.38,0-0.71-0.14-0.96-0.41c-0.26-0.28-0.39-0.62-0.39-1.03c0-0.41,0.13-0.75,0.39-1.03
				c0.26-0.28,0.58-0.41,0.96-0.41h0.36c0.38,0,0.7,0.14,0.96,0.41c0.26,0.28,0.39,0.62,0.39,1.03c0,0.41-0.13,0.75-0.39,1.03
				c-0.26,0.28-0.58,0.41-0.96,0.41H203.2z"/>
			<path class="st8" d="M210.44,29.57v-9.9h1.62v1.89h0.34l-0.34,0.38c0-0.77,0.23-1.37,0.7-1.8c0.47-0.43,1.12-0.65,1.94-0.65
				c1,0,1.79,0.31,2.38,0.93s0.88,1.45,0.88,2.49v6.66h-1.62v-6.48c0-0.7-0.19-1.24-0.57-1.64s-0.89-0.59-1.54-0.59
				c-0.68,0-1.22,0.21-1.6,0.64c-0.38,0.43-0.58,1.02-0.58,1.77v6.3H210.44z"/>
			<path class="st8" d="M224.06,29.75c-1.01,0-1.81-0.26-2.41-0.79c-0.6-0.53-0.9-1.24-0.9-2.14c0-0.95,0.3-1.69,0.89-2.23
				c0.59-0.54,1.41-0.81,2.44-0.81h3.06v-0.95c0-0.6-0.19-1.06-0.57-1.4s-0.9-0.5-1.58-0.5c-0.59,0-1.07,0.12-1.46,0.36
				c-0.38,0.24-0.61,0.57-0.67,0.99h-1.62c0.11-0.84,0.5-1.51,1.19-2.02c0.68-0.5,1.54-0.76,2.57-0.76c1.15,0,2.06,0.29,2.74,0.87
				s1.01,1.38,1.01,2.38v6.8h-1.58v-1.89h-0.38l0.38-0.2c0,0.68-0.29,1.23-0.88,1.65S224.96,29.75,224.06,29.75z M224.44,28.47
				c0.79,0,1.44-0.19,1.94-0.57c0.5-0.38,0.76-0.87,0.76-1.48v-1.4h-3.02c-0.54,0-0.97,0.15-1.28,0.45
				c-0.31,0.3-0.47,0.71-0.47,1.24c0,0.55,0.19,0.98,0.56,1.3C223.3,28.32,223.8,28.47,224.44,28.47z"/>
			<path class="st8" d="M231.57,29.57v-9.9h1.42v1.19h0.32l-0.25,0.43c0-0.55,0.15-0.99,0.44-1.31c0.29-0.32,0.69-0.49,1.2-0.49
				c0.55,0,0.98,0.2,1.28,0.61c0.3,0.41,0.45,0.98,0.45,1.73l-0.49-0.97h0.76l-0.34,0.43c0-0.55,0.15-0.99,0.46-1.31
				c0.31-0.32,0.71-0.49,1.21-0.49c0.61,0,1.09,0.23,1.44,0.69c0.35,0.46,0.52,1.08,0.52,1.86v7.52h-1.49v-7.54
				c0-0.41-0.09-0.73-0.26-0.95c-0.17-0.23-0.43-0.34-0.77-0.34c-0.32,0-0.58,0.11-0.76,0.33c-0.19,0.22-0.28,0.54-0.28,0.94v7.56
				h-1.3v-7.54c0-0.41-0.09-0.73-0.28-0.95c-0.19-0.23-0.45-0.34-0.78-0.34c-0.32,0-0.57,0.11-0.75,0.33s-0.26,0.54-0.26,0.94v7.56
				H231.57z"/>
			<path class="st8" d="M246.58,29.75c-0.77,0-1.44-0.16-2.02-0.47c-0.58-0.31-1.02-0.75-1.33-1.32s-0.47-1.23-0.47-1.99v-2.7
				c0-0.76,0.16-1.42,0.47-1.99c0.31-0.57,0.76-1.01,1.33-1.32c0.58-0.31,1.25-0.47,2.02-0.47s1.44,0.16,2.02,0.47
				s1.02,0.75,1.33,1.32c0.31,0.57,0.47,1.23,0.47,1.99v1.75h-6.05v0.95c0,0.79,0.19,1.39,0.57,1.8c0.38,0.41,0.93,0.61,1.67,0.61
				c0.62,0,1.12-0.11,1.48-0.33c0.37-0.22,0.59-0.55,0.68-1h1.62c-0.11,0.83-0.5,1.48-1.19,1.97
				C248.49,29.51,247.62,29.75,246.58,29.75z M248.81,23.27c0-0.79-0.19-1.4-0.57-1.81s-0.93-0.62-1.67-0.62s-1.29,0.21-1.67,0.62
				s-0.57,1.02-0.57,1.81v0.52h4.59l-0.13,0.14V23.27z"/>
			<path class="st6" d="M260.71,31.82c-1.7-0.42-3.03-1.25-3.98-2.48c-0.95-1.24-1.42-2.75-1.42-4.54v-3.42
				c0-1.16,0.22-2.23,0.66-3.19s1.06-1.77,1.87-2.43c0.81-0.66,1.77-1.13,2.87-1.4v1.53c-1.15,0.28-2.07,0.91-2.75,1.89
				c-0.68,0.98-1.03,2.18-1.03,3.6v3.42c0,1.39,0.34,2.57,1.02,3.55c0.68,0.97,1.6,1.6,2.76,1.87V31.82z"/>
			<path class="st6" d="M264.85,30.22c1.16-0.28,2.08-0.9,2.76-1.87c0.68-0.97,1.02-2.15,1.02-3.55v-3.42c0-1.42-0.34-2.62-1.03-3.6
				c-0.68-0.98-1.6-1.61-2.75-1.89v-1.53c1.1,0.28,2.06,0.74,2.87,1.4c0.81,0.66,1.43,1.47,1.87,2.43s0.66,2.02,0.66,3.19v3.42
				c0,1.79-0.47,3.3-1.42,4.54s-2.27,2.06-3.98,2.48V30.22z"/>
			<path class="st6" d="M126.16,53.15V36.23h4.41v1.44h-2.79v14.04h2.79v1.44H126.16z"/>
			<path class="st9" d="M134.53,42.8l2.34-5.6h1.44l-1.44,5.6H134.53z M138.67,42.8l2.34-5.6h1.44l-1.44,5.6H138.67z"/>
			<path class="st9" d="M144.88,51.17l3.42-13.14h2.18l3.4,13.14h-1.64l-0.86-3.49h-3.98l-0.86,3.49H144.88z M147.72,46.31h3.31
				l-1.01-4.05c-0.32-1.32-0.54-2.3-0.65-2.93c-0.11,0.65-0.32,1.62-0.65,2.92L147.72,46.31z"/>
			<path class="st9" d="M156.44,51.17v-9.9h1.62v1.89h0.34l-0.34,0.38c0-0.77,0.23-1.37,0.7-1.8c0.47-0.43,1.12-0.65,1.94-0.65
				c1,0,1.79,0.31,2.38,0.93s0.88,1.45,0.88,2.49v6.66h-1.62v-6.48c0-0.7-0.19-1.24-0.57-1.64s-0.89-0.59-1.54-0.59
				c-0.68,0-1.22,0.21-1.6,0.64c-0.38,0.43-0.58,1.02-0.58,1.77v6.3H156.44z"/>
			<path class="st9" d="M180.97,51.17V39.49h-3.6v-1.48h8.82v1.48h-3.6v11.68H180.97z"/>
			<path class="st9" d="M189.18,51.17v-9.9h1.58v1.89h0.38l-0.52,1.17c0-1.07,0.23-1.88,0.69-2.42c0.46-0.55,1.15-0.82,2.06-0.82
				c1.04,0,1.88,0.33,2.49,0.98c0.62,0.65,0.93,1.54,0.93,2.66v0.59h-1.62v-0.45c0-0.77-0.19-1.36-0.57-1.78
				c-0.38-0.42-0.92-0.63-1.61-0.63c-0.68,0-1.22,0.21-1.61,0.64c-0.39,0.43-0.58,1.02-0.58,1.77v6.3H189.18z"/>
			<path class="st9" d="M202.46,51.35c-1.01,0-1.81-0.26-2.41-0.79c-0.6-0.53-0.9-1.24-0.9-2.14c0-0.95,0.3-1.69,0.89-2.23
				c0.59-0.54,1.41-0.81,2.44-0.81h3.06v-0.95c0-0.6-0.19-1.06-0.57-1.4s-0.9-0.5-1.58-0.5c-0.59,0-1.07,0.12-1.46,0.36
				c-0.38,0.24-0.61,0.57-0.67,0.99h-1.62c0.11-0.84,0.5-1.51,1.19-2.02c0.68-0.5,1.54-0.76,2.57-0.76c1.15,0,2.06,0.29,2.74,0.87
				s1.01,1.38,1.01,2.38v6.8h-1.58v-1.89h-0.38l0.38-0.2c0,0.68-0.29,1.23-0.88,1.65S203.36,51.35,202.46,51.35z M202.84,50.07
				c0.79,0,1.44-0.19,1.94-0.57c0.5-0.38,0.76-0.87,0.76-1.48v-1.4h-3.02c-0.54,0-0.97,0.15-1.28,0.45
				c-0.31,0.3-0.47,0.71-0.47,1.24c0,0.55,0.19,0.98,0.56,1.3C201.7,49.92,202.2,50.07,202.84,50.07z"/>
			<path class="st9" d="M210.44,51.17v-9.9h1.62v1.89h0.34l-0.34,0.38c0-0.77,0.23-1.37,0.7-1.8c0.47-0.43,1.12-0.65,1.94-0.65
				c1,0,1.79,0.31,2.38,0.93s0.88,1.45,0.88,2.49v6.66h-1.62v-6.48c0-0.7-0.19-1.24-0.57-1.64s-0.89-0.59-1.54-0.59
				c-0.68,0-1.22,0.21-1.6,0.64c-0.38,0.43-0.58,1.02-0.58,1.77v6.3H210.44z"/>
			<path class="st9" d="M221.11,42.8l1.44-5.6h2.34l-2.34,5.6H221.11z M225.25,42.8l1.44-5.6h2.34l-2.34,5.6H225.25z"/>
			<path class="st6" d="M233.35,54.05l1.44-5.6h2.34l-2.34,5.6H233.35z"/>
			<path class="st9" d="M253.33,42.8l2.34-5.6h1.44l-1.44,5.6H253.33z M257.47,42.8l2.34-5.6h1.44l-1.44,5.6H257.47z"/>
			<path class="st9" d="M263.68,51.17l3.42-13.14h2.18l3.4,13.14h-1.64l-0.86-3.49h-3.98l-0.86,3.49H263.68z M266.52,46.31h3.31
				l-1.01-4.05c-0.32-1.32-0.54-2.3-0.65-2.93c-0.11,0.65-0.32,1.62-0.65,2.92L266.52,46.31z"/>
			<path class="st9" d="M277.88,51.17l-3.22-9.9h1.66l2.11,6.66c0.22,0.68,0.41,1.35,0.59,2c0.18-0.65,0.38-1.31,0.59-2l2.05-6.66
				h1.64l-3.22,9.9H277.88z"/>
			<path class="st9" d="M288.86,51.35c-1.01,0-1.81-0.26-2.41-0.79c-0.6-0.53-0.9-1.24-0.9-2.14c0-0.95,0.3-1.69,0.89-2.23
				c0.59-0.54,1.41-0.81,2.44-0.81h3.06v-0.95c0-0.6-0.19-1.06-0.57-1.4s-0.9-0.5-1.58-0.5c-0.59,0-1.07,0.12-1.46,0.36
				c-0.38,0.24-0.61,0.57-0.67,0.99h-1.62c0.11-0.84,0.5-1.51,1.19-2.02c0.68-0.5,1.54-0.76,2.57-0.76c1.15,0,2.06,0.29,2.74,0.87
				s1.01,1.38,1.01,2.38v6.8h-1.58v-1.89h-0.38l0.38-0.2c0,0.68-0.29,1.23-0.88,1.65S289.76,51.35,288.86,51.35z M289.24,50.07
				c0.79,0,1.44-0.19,1.94-0.57c0.5-0.38,0.76-0.87,0.76-1.48v-1.4h-3.02c-0.54,0-0.97,0.15-1.28,0.45
				c-0.31,0.3-0.47,0.71-0.47,1.24c0,0.55,0.19,0.98,0.56,1.3C288.1,49.92,288.6,50.07,289.24,50.07z"/>
			<path class="st9" d="M297.18,51.17v-9.9h1.58v1.89h0.38l-0.52,1.17c0-1.07,0.23-1.88,0.69-2.42c0.46-0.55,1.15-0.82,2.06-0.82
				c1.04,0,1.88,0.33,2.49,0.98c0.62,0.65,0.93,1.54,0.93,2.66v0.59h-1.62v-0.45c0-0.77-0.19-1.36-0.57-1.78
				c-0.38-0.42-0.92-0.63-1.61-0.63c-0.68,0-1.22,0.21-1.61,0.64c-0.39,0.43-0.58,1.02-0.58,1.77v6.3H297.18z"/>
			<path class="st9" d="M311.38,51.35c-0.77,0-1.44-0.16-2.02-0.47c-0.58-0.31-1.02-0.75-1.33-1.32s-0.47-1.23-0.47-1.99v-2.7
				c0-0.76,0.16-1.42,0.47-1.99c0.31-0.57,0.76-1.01,1.33-1.32c0.58-0.31,1.25-0.47,2.02-0.47s1.44,0.16,2.02,0.47
				s1.02,0.75,1.33,1.32c0.31,0.57,0.47,1.23,0.47,1.99v1.75h-6.05v0.95c0,0.79,0.19,1.39,0.57,1.8c0.38,0.41,0.93,0.61,1.67,0.61
				c0.62,0,1.12-0.11,1.48-0.33c0.37-0.22,0.59-0.55,0.68-1h1.62c-0.11,0.83-0.5,1.48-1.19,1.97
				C313.29,51.11,312.42,51.35,311.38,51.35z M313.61,44.87c0-0.79-0.19-1.4-0.57-1.81s-0.93-0.62-1.67-0.62s-1.29,0.21-1.67,0.62
				s-0.57,1.02-0.57,1.81v0.52h4.59l-0.13,0.14V44.87z"/>
			<path class="st9" d="M323.35,51.17c-0.88,0-1.57-0.25-2.1-0.77c-0.52-0.51-0.78-1.18-0.78-2.02v-8.87h-2.97v-1.48h4.59v10.35
				c0,0.41,0.11,0.73,0.34,0.96c0.23,0.23,0.53,0.35,0.92,0.35h3.33v1.48H323.35z"/>
			<path class="st9" d="M329.11,42.8l1.44-5.6h2.34l-2.34,5.6H329.11z M333.25,42.8l1.44-5.6h2.34l-2.34,5.6H333.25z"/>
			<path class="st6" d="M341.08,53.15v-1.44h2.79V37.67h-2.79v-1.44h4.41v16.92H341.08z"/>
			<path class="st6" d="M86.2,95.9V80.87h1.62V95.9H86.2z M93.94,95.9V80.87h1.62l10.71,6.66v1.8L95.56,95.9H93.94z M103.57,89.17
				c0.46-0.28,0.88-0.51,1.28-0.7c-0.4-0.2-0.82-0.45-1.28-0.74l-8.01-4.93v11.23L103.57,89.17z"/>
			<path class="st7" d="M124.04,97.61V84.47h1.62v1.89h0.32l-0.32,0.38c0-0.76,0.25-1.35,0.74-1.79c0.49-0.44,1.15-0.66,1.98-0.66
				c1,0,1.78,0.33,2.36,0.99s0.86,1.55,0.86,2.68v2.9c0,1.14-0.29,2.04-0.86,2.7c-0.58,0.66-1.36,0.99-2.36,0.99
				c-0.82,0-1.47-0.22-1.97-0.67c-0.5-0.44-0.75-1.04-0.75-1.78l0.32,0.38h-0.36l0.04,2.25v2.88H124.04z M127.83,93.15
				c0.68,0,1.21-0.2,1.58-0.61c0.37-0.41,0.56-1,0.56-1.76v-2.7c0-0.77-0.19-1.36-0.56-1.76c-0.37-0.41-0.9-0.61-1.58-0.61
				c-0.67,0-1.2,0.21-1.59,0.63s-0.58,1-0.58,1.75v2.7c0,0.74,0.19,1.33,0.58,1.75S127.16,93.15,127.83,93.15z"/>
			<path class="st7" d="M135.18,94.37v-9.9h1.58v1.89h0.38l-0.52,1.17c0-1.07,0.23-1.88,0.69-2.42s1.15-0.82,2.06-0.82
				c1.04,0,1.88,0.33,2.49,0.98c0.62,0.65,0.93,1.54,0.93,2.65v0.59h-1.62v-0.45c0-0.77-0.19-1.36-0.57-1.78
				c-0.38-0.42-0.92-0.63-1.61-0.63c-0.68,0-1.22,0.21-1.61,0.64c-0.39,0.43-0.58,1.02-0.58,1.77v6.3H135.18z"/>
			<path class="st7" d="M149.38,94.55c-0.78,0-1.46-0.15-2.03-0.45c-0.58-0.3-1.02-0.74-1.32-1.31c-0.31-0.57-0.46-1.24-0.46-2.02
				v-2.7c0-0.78,0.15-1.46,0.46-2.03c0.31-0.57,0.75-1,1.32-1.3c0.58-0.3,1.25-0.45,2.03-0.45c0.78,0,1.46,0.15,2.03,0.45
				c0.58,0.3,1.02,0.74,1.32,1.3c0.31,0.57,0.46,1.24,0.46,2.01v2.72c0,0.78-0.15,1.46-0.46,2.02c-0.31,0.57-0.75,1.01-1.32,1.31
				C150.84,94.4,150.16,94.55,149.38,94.55z M149.38,93.11c0.71,0,1.25-0.2,1.63-0.6c0.38-0.4,0.57-0.98,0.57-1.74v-2.7
				c0-0.76-0.19-1.33-0.57-1.74c-0.38-0.4-0.92-0.6-1.63-0.6s-1.25,0.2-1.63,0.6c-0.38,0.4-0.57,0.98-0.57,1.74v2.7
				c0,0.76,0.19,1.33,0.57,1.74C148.13,92.91,148.67,93.11,149.38,93.11z"/>
			<path class="st7" d="M158.74,94.37v-8.23h-2.88v-1.48h2.88v-0.95c0-0.77,0.23-1.37,0.7-1.82c0.47-0.44,1.1-0.67,1.91-0.67h3.06
				v1.48h-3.06c-0.31,0-0.56,0.09-0.73,0.26c-0.17,0.17-0.26,0.42-0.26,0.73v0.97h4.05v1.48h-4.05v8.23H158.74z"/>
			<path class="st7" d="M167.02,94.37V92.9h3.51v-6.95h-3.06v-1.48h4.68v8.42h3.33v1.48H167.02z M170.98,82.76
				c-0.36,0-0.65-0.1-0.85-0.29c-0.21-0.19-0.31-0.45-0.31-0.77s0.11-0.59,0.32-0.79c0.22-0.2,0.5-0.31,0.85-0.31h0.36
				c0.35,0,0.63,0.1,0.85,0.31s0.32,0.47,0.32,0.79s-0.11,0.58-0.32,0.77c-0.22,0.19-0.5,0.29-0.85,0.29H170.98z"/>
			<path class="st7" d="M182.95,94.37c-0.88,0-1.57-0.25-2.1-0.76c-0.52-0.51-0.78-1.19-0.78-2.03v-8.87h-2.97v-1.48h4.59v10.35
				c0,0.41,0.11,0.73,0.34,0.96c0.23,0.23,0.53,0.35,0.92,0.35h3.33v1.48H182.95z"/>
			<path class="st7" d="M192.58,94.55c-0.77,0-1.44-0.16-2.02-0.47c-0.58-0.31-1.02-0.75-1.33-1.32c-0.31-0.57-0.47-1.23-0.47-1.99
				v-2.7c0-0.76,0.16-1.42,0.47-1.99c0.31-0.57,0.76-1.01,1.33-1.32c0.58-0.31,1.25-0.47,2.02-0.47s1.44,0.16,2.02,0.47
				c0.58,0.31,1.02,0.75,1.33,1.32c0.31,0.57,0.47,1.23,0.47,1.99v1.75h-6.05v0.95c0,0.79,0.19,1.39,0.57,1.8s0.93,0.61,1.67,0.61
				c0.62,0,1.12-0.11,1.48-0.33c0.37-0.22,0.59-0.55,0.68-1h1.62c-0.11,0.83-0.5,1.48-1.19,1.97
				C194.49,94.31,193.62,94.55,192.58,94.55z M194.81,88.07c0-0.79-0.19-1.4-0.57-1.81s-0.93-0.62-1.67-0.62s-1.29,0.21-1.67,0.62
				s-0.57,1.02-0.57,1.81v0.52h4.59l-0.13,0.14V88.07z"/>
			<path class="st6" d="M203.2,94.55c-0.38,0-0.71-0.14-0.96-0.41c-0.26-0.28-0.39-0.62-0.39-1.03s0.13-0.75,0.39-1.03
				c0.26-0.28,0.58-0.41,0.96-0.41h0.36c0.38,0,0.7,0.14,0.96,0.41c0.26,0.28,0.39,0.62,0.39,1.03s-0.13,0.75-0.39,1.03
				c-0.26,0.28-0.58,0.41-0.96,0.41H203.2z"/>
			<path class="st8" d="M210.22,94.37V92.9h3.51v-6.95h-3.06v-1.48h4.68v8.42h3.33v1.48H210.22z M214.18,82.76
				c-0.36,0-0.65-0.1-0.85-0.29c-0.21-0.19-0.31-0.45-0.31-0.77s0.11-0.59,0.32-0.79c0.22-0.2,0.5-0.31,0.85-0.31h0.36
				c0.35,0,0.63,0.1,0.85,0.31s0.32,0.47,0.32,0.79s-0.11,0.58-0.32,0.77c-0.22,0.19-0.5,0.29-0.85,0.29H214.18z"/>
			<path class="st8" d="M221.24,94.37v-9.9h1.62v1.89h0.34l-0.34,0.38c0-0.77,0.23-1.37,0.7-1.8c0.47-0.43,1.12-0.65,1.94-0.65
				c1,0,1.79,0.31,2.38,0.93c0.59,0.62,0.88,1.45,0.88,2.49v6.66h-1.62v-6.48c0-0.7-0.19-1.24-0.57-1.64
				c-0.38-0.4-0.89-0.59-1.54-0.59c-0.68,0-1.22,0.21-1.6,0.64c-0.38,0.43-0.58,1.02-0.58,1.77v6.3H221.24z"/>
			<path class="st8" d="M236.86,94.37c-0.85,0-1.52-0.23-1.99-0.68c-0.47-0.46-0.71-1.1-0.71-1.93v-5.81h-2.79v-1.48h2.79v-2.7h1.62
				v2.7h3.96v1.48h-3.96v5.81c0,0.38,0.09,0.67,0.26,0.86c0.17,0.19,0.45,0.28,0.82,0.28h2.7v1.48H236.86z"/>
			<path class="st8" d="M246.58,94.55c-0.77,0-1.44-0.16-2.02-0.47c-0.58-0.31-1.02-0.75-1.33-1.32c-0.31-0.57-0.47-1.23-0.47-1.99
				v-2.7c0-0.76,0.16-1.42,0.47-1.99c0.31-0.57,0.76-1.01,1.33-1.32c0.58-0.31,1.25-0.47,2.02-0.47s1.44,0.16,2.02,0.47
				c0.58,0.31,1.02,0.75,1.33,1.32c0.31,0.57,0.47,1.23,0.47,1.99v1.75h-6.05v0.95c0,0.79,0.19,1.39,0.57,1.8s0.93,0.61,1.67,0.61
				c0.62,0,1.12-0.11,1.48-0.33c0.37-0.22,0.59-0.55,0.68-1h1.62c-0.11,0.83-0.5,1.48-1.19,1.97
				C248.49,94.31,247.62,94.55,246.58,94.55z M248.81,88.07c0-0.79-0.19-1.4-0.57-1.81s-0.93-0.62-1.67-0.62s-1.29,0.21-1.67,0.62
				s-0.57,1.02-0.57,1.81v0.52h4.59l-0.13,0.14V88.07z"/>
			<path class="st8" d="M253.98,94.37v-9.9h1.58v1.89h0.38l-0.52,1.17c0-1.07,0.23-1.88,0.69-2.42s1.15-0.82,2.06-0.82
				c1.04,0,1.88,0.33,2.49,0.98c0.62,0.65,0.93,1.54,0.93,2.65v0.59h-1.62v-0.45c0-0.77-0.19-1.36-0.57-1.78
				c-0.38-0.42-0.92-0.63-1.61-0.63c-0.68,0-1.22,0.21-1.61,0.64c-0.39,0.43-0.58,1.02-0.58,1.77v6.3H253.98z"/>
			<path class="st8" d="M268.18,94.55c-0.77,0-1.44-0.16-2.02-0.47c-0.58-0.31-1.02-0.75-1.33-1.32c-0.31-0.57-0.47-1.23-0.47-1.99
				v-2.7c0-0.76,0.16-1.42,0.47-1.99c0.31-0.57,0.76-1.01,1.33-1.32c0.58-0.31,1.25-0.47,2.02-0.47s1.44,0.16,2.02,0.47
				c0.58,0.31,1.02,0.75,1.33,1.32c0.31,0.57,0.47,1.23,0.47,1.99v1.75h-6.05v0.95c0,0.79,0.19,1.39,0.57,1.8s0.93,0.61,1.67,0.61
				c0.62,0,1.12-0.11,1.48-0.33c0.37-0.22,0.59-0.55,0.68-1h1.62c-0.11,0.83-0.5,1.48-1.19,1.97
				C270.09,94.31,269.22,94.55,268.18,94.55z M270.41,88.07c0-0.79-0.19-1.4-0.57-1.81s-0.93-0.62-1.67-0.62s-1.29,0.21-1.67,0.62
				s-0.57,1.02-0.57,1.81v0.52h4.59l-0.13,0.14V88.07z"/>
			<path class="st8" d="M278.58,94.55c-0.67,0-1.26-0.11-1.75-0.32c-0.5-0.22-0.89-0.52-1.19-0.91c-0.29-0.39-0.47-0.85-0.53-1.38
				h1.62c0.07,0.36,0.27,0.64,0.59,0.85c0.32,0.21,0.74,0.32,1.26,0.32h0.76c0.62,0,1.1-0.13,1.41-0.4
				c0.32-0.26,0.48-0.62,0.48-1.06c0-0.42-0.14-0.75-0.42-0.99c-0.28-0.24-0.7-0.41-1.25-0.5l-1.33-0.22
				c-0.98-0.16-1.71-0.46-2.18-0.91c-0.47-0.45-0.7-1.09-0.7-1.92c0-0.9,0.29-1.6,0.86-2.09s1.42-0.74,2.52-0.74h0.68
				c0.94,0,1.69,0.22,2.28,0.67s0.93,1.06,1.05,1.83h-1.62c-0.07-0.32-0.26-0.58-0.56-0.77c-0.3-0.19-0.68-0.29-1.15-0.29h-0.68
				c-0.6,0-1.04,0.12-1.33,0.36c-0.29,0.24-0.43,0.59-0.43,1.04c0,0.4,0.12,0.69,0.35,0.89c0.23,0.2,0.61,0.34,1.14,0.42l1.33,0.22
				c1.07,0.17,1.85,0.48,2.33,0.94s0.73,1.12,0.73,1.98c0,0.94-0.3,1.67-0.89,2.19c-0.59,0.52-1.47,0.78-2.62,0.78H278.58z"/>
			<path class="st8" d="M290.86,94.37c-0.85,0-1.52-0.23-1.99-0.68c-0.47-0.46-0.71-1.1-0.71-1.93v-5.81h-2.79v-1.48h2.79v-2.7h1.62
				v2.7h3.96v1.48h-3.96v5.81c0,0.38,0.09,0.67,0.26,0.86c0.17,0.19,0.45,0.28,0.82,0.28h2.7v1.48H290.86z"/>
			<path class="st8" d="M300.18,94.55c-0.67,0-1.26-0.11-1.75-0.32c-0.5-0.22-0.89-0.52-1.19-0.91c-0.29-0.39-0.47-0.85-0.53-1.38
				h1.62c0.07,0.36,0.27,0.64,0.59,0.85c0.32,0.21,0.74,0.32,1.26,0.32h0.76c0.62,0,1.1-0.13,1.41-0.4
				c0.32-0.26,0.48-0.62,0.48-1.06c0-0.42-0.14-0.75-0.42-0.99c-0.28-0.24-0.7-0.41-1.25-0.5l-1.33-0.22
				c-0.98-0.16-1.71-0.46-2.18-0.91c-0.47-0.45-0.7-1.09-0.7-1.92c0-0.9,0.29-1.6,0.86-2.09s1.42-0.74,2.52-0.74h0.68
				c0.94,0,1.69,0.22,2.28,0.67s0.93,1.06,1.05,1.83h-1.62c-0.07-0.32-0.26-0.58-0.56-0.77c-0.3-0.19-0.68-0.29-1.15-0.29h-0.68
				c-0.6,0-1.04,0.12-1.33,0.36c-0.29,0.24-0.43,0.59-0.43,1.04c0,0.4,0.12,0.69,0.35,0.89c0.23,0.2,0.61,0.34,1.14,0.42l1.33,0.22
				c1.07,0.17,1.85,0.48,2.33,0.94s0.73,1.12,0.73,1.98c0,0.94-0.3,1.67-0.89,2.19c-0.59,0.52-1.47,0.78-2.62,0.78H300.18z"/>
			<path class="st6" d="M314.71,96.62c-1.7-0.42-3.03-1.25-3.98-2.48c-0.95-1.24-1.42-2.75-1.42-4.54v-3.42
				c0-1.16,0.22-2.23,0.66-3.19s1.06-1.77,1.87-2.43s1.77-1.13,2.87-1.4v1.53c-1.15,0.28-2.07,0.91-2.75,1.89
				c-0.68,0.98-1.03,2.18-1.03,3.6v3.42c0,1.39,0.34,2.57,1.02,3.55c0.68,0.97,1.6,1.6,2.76,1.87V96.62z"/>
			<path class="st6" d="M318.85,95.02c1.16-0.28,2.08-0.9,2.76-1.87c0.68-0.97,1.02-2.15,1.02-3.55v-3.42c0-1.42-0.34-2.62-1.03-3.6
				c-0.68-0.98-1.6-1.61-2.75-1.89v-1.53c1.1,0.28,2.06,0.74,2.87,1.4s1.43,1.47,1.87,2.43s0.66,2.02,0.66,3.19v3.42
				c0,1.79-0.47,3.3-1.42,4.54c-0.95,1.24-2.27,2.06-3.98,2.48V95.02z"/>
			<path class="st6" d="M126.16,117.95v-16.92h4.41v1.44h-2.79v14.04h2.79v1.44H126.16z"/>
			<path class="st9" d="M134.71,107.6l1.44-5.6h2.34l-2.34,5.6H134.71z M138.85,107.6l1.44-5.6h2.34l-2.34,5.6H138.85z"/>
			<path class="st9" d="M149.45,116.15c-0.85,0-1.59-0.14-2.21-0.43s-1.1-0.7-1.44-1.24s-0.51-1.18-0.52-1.93h1.62
				c0,0.67,0.23,1.2,0.67,1.58c0.45,0.38,1.08,0.58,1.88,0.58c0.76,0,1.35-0.19,1.77-0.57c0.43-0.38,0.64-0.9,0.64-1.56
				c0-0.53-0.14-0.99-0.43-1.39c-0.29-0.4-0.69-0.67-1.21-0.83l-1.78-0.56c-0.9-0.28-1.59-0.73-2.08-1.38
				c-0.49-0.64-0.73-1.41-0.73-2.29c0-0.7,0.16-1.31,0.48-1.84s0.77-0.94,1.35-1.23c0.58-0.29,1.26-0.44,2.02-0.44
				c1.15,0,2.07,0.32,2.76,0.96c0.69,0.64,1.05,1.5,1.07,2.57h-1.62c0-0.65-0.2-1.16-0.58-1.53c-0.39-0.37-0.94-0.56-1.65-0.56
				c-0.7,0-1.24,0.17-1.63,0.51s-0.58,0.81-0.58,1.41c0,0.54,0.14,1.01,0.43,1.4c0.29,0.4,0.7,0.68,1.24,0.85l1.8,0.58
				c0.88,0.28,1.55,0.75,2.03,1.4c0.48,0.66,0.72,1.43,0.72,2.32c0,0.71-0.17,1.33-0.5,1.88s-0.81,0.97-1.42,1.27
				C150.95,116,150.24,116.15,149.45,116.15z"/>
			<path class="st9" d="M158.04,119.21l1.46-3.85l-3.64-9.29h1.8l2.21,6.12c0.12,0.35,0.26,0.83,0.41,1.44
				c0.14-0.61,0.28-1.09,0.4-1.44l2.07-6.12h1.75l-4.73,13.14H158.04z"/>
			<path class="st9" d="M170.58,116.15c-0.67,0-1.26-0.11-1.75-0.32c-0.5-0.22-0.89-0.52-1.19-0.91c-0.29-0.39-0.47-0.85-0.53-1.38
				h1.62c0.07,0.36,0.27,0.64,0.59,0.85c0.32,0.21,0.74,0.32,1.26,0.32h0.76c0.62,0,1.1-0.13,1.41-0.4
				c0.32-0.26,0.48-0.62,0.48-1.06c0-0.42-0.14-0.75-0.42-0.99c-0.28-0.24-0.7-0.41-1.25-0.5l-1.33-0.22
				c-0.98-0.16-1.71-0.46-2.18-0.91c-0.47-0.45-0.7-1.09-0.7-1.92c0-0.9,0.29-1.6,0.86-2.09s1.42-0.74,2.52-0.74h0.68
				c0.94,0,1.69,0.22,2.28,0.67s0.93,1.06,1.05,1.83h-1.62c-0.07-0.32-0.26-0.58-0.56-0.77c-0.3-0.19-0.68-0.29-1.15-0.29h-0.68
				c-0.6,0-1.04,0.12-1.33,0.36c-0.29,0.24-0.43,0.59-0.43,1.04c0,0.4,0.12,0.69,0.35,0.89c0.23,0.2,0.61,0.34,1.14,0.42l1.33,0.22
				c1.07,0.17,1.85,0.48,2.33,0.94s0.73,1.12,0.73,1.98c0,0.94-0.3,1.67-0.89,2.19c-0.59,0.52-1.47,0.78-2.62,0.78H170.58z"/>
			<path class="st9" d="M182.86,115.97c-0.85,0-1.52-0.23-1.99-0.68c-0.47-0.46-0.71-1.1-0.71-1.93v-5.81h-2.79v-1.48h2.79v-2.7
				h1.62v2.7h3.96v1.48h-3.96v5.81c0,0.38,0.09,0.67,0.26,0.86c0.17,0.19,0.45,0.28,0.82,0.28h2.7v1.48H182.86z"/>
			<path class="st9" d="M192.58,116.15c-0.77,0-1.44-0.16-2.02-0.47c-0.58-0.31-1.02-0.75-1.33-1.32c-0.31-0.57-0.47-1.23-0.47-1.99
				v-2.7c0-0.76,0.16-1.42,0.47-1.99c0.31-0.57,0.76-1.01,1.33-1.32c0.58-0.31,1.25-0.47,2.02-0.47s1.44,0.16,2.02,0.47
				c0.58,0.31,1.02,0.75,1.33,1.32c0.31,0.57,0.47,1.23,0.47,1.99v1.75h-6.05v0.95c0,0.79,0.19,1.39,0.57,1.8s0.93,0.61,1.67,0.61
				c0.62,0,1.12-0.11,1.48-0.33c0.37-0.22,0.59-0.55,0.68-1h1.62c-0.11,0.83-0.5,1.48-1.19,1.97
				C194.49,115.91,193.62,116.15,192.58,116.15z M194.81,109.67c0-0.79-0.19-1.4-0.57-1.81s-0.93-0.62-1.67-0.62
				s-1.29,0.21-1.67,0.62s-0.57,1.02-0.57,1.81v0.52h4.59l-0.13,0.14V109.67z"/>
			<path class="st9" d="M199.17,115.97v-9.9h1.42v1.19h0.32l-0.25,0.43c0-0.55,0.15-0.99,0.44-1.31c0.29-0.32,0.69-0.49,1.2-0.49
				c0.55,0,0.98,0.2,1.28,0.61c0.3,0.41,0.45,0.98,0.45,1.73l-0.49-0.97h0.76l-0.34,0.43c0-0.55,0.15-0.99,0.46-1.31
				s0.71-0.49,1.21-0.49c0.61,0,1.09,0.23,1.44,0.69s0.52,1.08,0.52,1.86v7.52h-1.49v-7.54c0-0.41-0.09-0.73-0.26-0.95
				c-0.17-0.23-0.43-0.34-0.77-0.34c-0.32,0-0.58,0.11-0.76,0.33c-0.19,0.22-0.28,0.54-0.28,0.95v7.56h-1.3v-7.54
				c0-0.41-0.09-0.73-0.28-0.95c-0.19-0.23-0.45-0.34-0.78-0.34c-0.32,0-0.57,0.11-0.75,0.33s-0.26,0.54-0.26,0.95v7.56H199.17z"/>
			<path class="st9" d="M213.78,116.15c-0.67,0-1.26-0.11-1.75-0.32c-0.5-0.22-0.89-0.52-1.19-0.91c-0.29-0.39-0.47-0.85-0.53-1.38
				h1.62c0.07,0.36,0.27,0.64,0.59,0.85c0.32,0.21,0.74,0.32,1.26,0.32h0.76c0.62,0,1.1-0.13,1.41-0.4
				c0.32-0.26,0.48-0.62,0.48-1.06c0-0.42-0.14-0.75-0.42-0.99c-0.28-0.24-0.7-0.41-1.25-0.5l-1.33-0.22
				c-0.98-0.16-1.71-0.46-2.18-0.91c-0.47-0.45-0.7-1.09-0.7-1.92c0-0.9,0.29-1.6,0.86-2.09s1.42-0.74,2.52-0.74h0.68
				c0.94,0,1.69,0.22,2.28,0.67s0.93,1.06,1.05,1.83h-1.62c-0.07-0.32-0.26-0.58-0.56-0.77c-0.3-0.19-0.68-0.29-1.15-0.29h-0.68
				c-0.6,0-1.04,0.12-1.33,0.36c-0.29,0.24-0.43,0.59-0.43,1.04c0,0.4,0.12,0.69,0.35,0.89c0.23,0.2,0.61,0.34,1.14,0.42l1.33,0.22
				c1.07,0.17,1.85,0.48,2.33,0.94s0.73,1.12,0.73,1.98c0,0.94-0.3,1.67-0.89,2.19c-0.59,0.52-1.47,0.78-2.62,0.78H213.78z"/>
			<path class="st9" d="M221.11,107.6l1.44-5.6h2.34l-2.34,5.6H221.11z M225.25,107.6l1.44-5.6h2.34l-2.34,5.6H225.25z"/>
			<path class="st6" d="M233.35,118.85l1.44-5.6h2.34l-2.34,5.6H233.35z"/>
			<path class="st9" d="M253.33,107.6l2.34-5.6h1.44l-1.44,5.6H253.33z M257.47,107.6l2.34-5.6h1.44l-1.44,5.6H257.47z"/>
			<path class="st9" d="M264.49,115.97v-13.16h7.74v1.48h-6.16v4.39h5.69v1.48h-5.65v5.81H264.49z"/>
			<path class="st9" d="M278.96,116.15c-1.14,0-2.05-0.34-2.74-1.03c-0.68-0.68-1.03-1.6-1.03-2.75v-6.3h1.62v6.3
				c0,0.74,0.19,1.32,0.57,1.74s0.9,0.62,1.57,0.62c0.68,0,1.22-0.21,1.6-0.62c0.38-0.41,0.58-0.99,0.58-1.74v-6.3h1.62v6.3
				c0,1.15-0.35,2.07-1.04,2.75C281.03,115.81,280.11,116.15,278.96,116.15z"/>
			<path class="st9" d="M290.95,115.97c-0.88,0-1.57-0.25-2.1-0.76c-0.52-0.51-0.78-1.19-0.78-2.03v-8.87h-2.97v-1.48h4.59v10.35
				c0,0.41,0.11,0.73,0.34,0.96c0.23,0.23,0.53,0.35,0.92,0.35h3.33v1.48H290.95z"/>
			<path class="st9" d="M301.75,115.97c-0.88,0-1.57-0.25-2.1-0.76c-0.52-0.51-0.78-1.19-0.78-2.03v-8.87h-2.97v-1.48h4.59v10.35
				c0,0.41,0.11,0.73,0.34,0.96c0.23,0.23,0.53,0.35,0.92,0.35h3.33v1.48H301.75z"/>
			<path class="st9" d="M307.51,110.75v-1.44h7.74v1.44H307.51z"/>
			<path class="st9" d="M321.78,116.15c-0.67,0-1.26-0.11-1.75-0.32c-0.5-0.22-0.89-0.52-1.19-0.91c-0.29-0.39-0.47-0.85-0.53-1.38
				h1.62c0.07,0.36,0.27,0.64,0.59,0.85c0.32,0.21,0.74,0.32,1.26,0.32h0.76c0.62,0,1.1-0.13,1.41-0.4
				c0.32-0.26,0.48-0.62,0.48-1.06c0-0.42-0.14-0.75-0.42-0.99c-0.28-0.24-0.7-0.41-1.25-0.5l-1.33-0.22
				c-0.98-0.16-1.71-0.46-2.18-0.91c-0.47-0.45-0.7-1.09-0.7-1.92c0-0.9,0.29-1.6,0.86-2.09s1.42-0.74,2.52-0.74h0.68
				c0.94,0,1.69,0.22,2.28,0.67s0.93,1.06,1.05,1.83h-1.62c-0.07-0.32-0.26-0.58-0.56-0.77c-0.3-0.19-0.68-0.29-1.15-0.29h-0.68
				c-0.6,0-1.04,0.12-1.33,0.36c-0.29,0.24-0.43,0.59-0.43,1.04c0,0.4,0.12,0.69,0.35,0.89c0.23,0.2,0.61,0.34,1.14,0.42l1.33,0.22
				c1.07,0.17,1.85,0.48,2.33,0.94s0.73,1.12,0.73,1.98c0,0.94-0.3,1.67-0.89,2.19c-0.59,0.52-1.47,0.78-2.62,0.78H321.78z"/>
			<path class="st9" d="M334.06,115.97c-0.85,0-1.52-0.23-1.99-0.68c-0.47-0.46-0.71-1.1-0.71-1.93v-5.81h-2.79v-1.48h2.79v-2.7
				h1.62v2.7h3.96v1.48h-3.96v5.81c0,0.38,0.09,0.67,0.26,0.86c0.17,0.19,0.45,0.28,0.82,0.28h2.7v1.48H334.06z"/>
			<path class="st9" d="M342.86,116.15c-1.01,0-1.81-0.26-2.41-0.79c-0.6-0.53-0.9-1.24-0.9-2.14c0-0.95,0.3-1.69,0.89-2.23
				c0.59-0.54,1.41-0.81,2.44-0.81h3.06v-0.95c0-0.6-0.19-1.06-0.57-1.39s-0.9-0.5-1.58-0.5c-0.59,0-1.07,0.12-1.46,0.36
				c-0.38,0.24-0.61,0.57-0.67,0.99h-1.62c0.11-0.84,0.5-1.51,1.19-2.02c0.68-0.5,1.54-0.76,2.57-0.76c1.15,0,2.06,0.29,2.74,0.87
				c0.67,0.58,1.01,1.38,1.01,2.39v6.8h-1.58v-1.89h-0.38l0.38-0.2c0,0.68-0.29,1.23-0.88,1.65S343.76,116.15,342.86,116.15z
				 M343.24,114.87c0.79,0,1.44-0.19,1.94-0.57c0.5-0.38,0.76-0.87,0.76-1.49v-1.4h-3.02c-0.54,0-0.97,0.15-1.28,0.45
				c-0.31,0.3-0.47,0.71-0.47,1.24c0,0.55,0.19,0.98,0.56,1.3C342.1,114.72,342.6,114.87,343.24,114.87z"/>
			<path class="st9" d="M354.65,116.15c-0.79,0-1.48-0.15-2.07-0.45s-1.04-0.74-1.35-1.31c-0.31-0.57-0.47-1.24-0.47-2.02v-2.7
				c0-0.78,0.16-1.46,0.47-2.03c0.31-0.57,0.76-1,1.35-1.3s1.28-0.45,2.07-0.45c1.14,0,2.06,0.31,2.75,0.92
				c0.7,0.61,1.06,1.45,1.1,2.5h-1.62c-0.04-0.62-0.25-1.11-0.64-1.46c-0.39-0.35-0.92-0.52-1.59-0.52c-0.71,0-1.26,0.2-1.67,0.61
				c-0.4,0.41-0.6,0.98-0.6,1.71v2.72c0,0.74,0.2,1.32,0.59,1.73s0.95,0.61,1.67,0.61c0.67,0,1.2-0.17,1.59-0.52
				c0.39-0.35,0.6-0.83,0.64-1.46h1.62c-0.04,1.06-0.4,1.89-1.1,2.5C356.71,115.85,355.79,116.15,354.65,116.15z"/>
			<path class="st9" d="M361.69,115.97v-13.14h1.62v7.33h1.73l2.88-4.09h1.85l-3.33,4.72l3.38,5.18h-1.89l-2.88-4.41h-1.75v4.41
				H361.69z"/>
			<path class="st9" d="M372.31,107.6l1.44-5.6h2.34l-2.34,5.6H372.31z M376.45,107.6l1.44-5.6h2.34l-2.34,5.6H376.45z"/>
			<path class="st6" d="M384.28,117.95v-1.44h2.79v-14.04h-2.79v-1.44h4.41v16.92H384.28z"/>
			<path class="st6" d="M86.2,160.7v-15.03h1.62v15.03H86.2z M93.94,160.7v-15.03h1.62l10.71,6.66v1.8l-10.71,6.57H93.94z
				 M103.57,153.97c0.46-0.28,0.88-0.51,1.28-0.7c-0.4-0.2-0.82-0.45-1.28-0.74l-8.01-4.93v11.23L103.57,153.97z"/>
			<path class="st7" d="M124.04,162.41v-13.14h1.62v1.89h0.32l-0.32,0.38c0-0.76,0.25-1.35,0.74-1.79c0.49-0.44,1.15-0.66,1.98-0.66
				c1,0,1.78,0.33,2.36,0.99s0.86,1.55,0.86,2.68v2.9c0,1.14-0.29,2.04-0.86,2.7c-0.58,0.66-1.36,0.99-2.36,0.99
				c-0.82,0-1.47-0.22-1.97-0.67c-0.5-0.44-0.75-1.04-0.75-1.78l0.32,0.38h-0.36l0.04,2.25v2.88H124.04z M127.83,157.95
				c0.68,0,1.21-0.2,1.58-0.61c0.37-0.41,0.56-1,0.56-1.76v-2.7c0-0.77-0.19-1.36-0.56-1.76c-0.37-0.41-0.9-0.61-1.58-0.61
				c-0.67,0-1.2,0.21-1.59,0.63s-0.58,1-0.58,1.75v2.7c0,0.74,0.19,1.33,0.58,1.75S127.16,157.95,127.83,157.95z"/>
			<path class="st7" d="M135.18,159.17v-9.9h1.58v1.89h0.38l-0.52,1.17c0-1.07,0.23-1.88,0.69-2.42s1.15-0.82,2.06-0.82
				c1.04,0,1.88,0.33,2.49,0.98c0.62,0.65,0.93,1.54,0.93,2.65v0.59h-1.62v-0.45c0-0.77-0.19-1.36-0.57-1.78
				c-0.38-0.42-0.92-0.63-1.61-0.63c-0.68,0-1.22,0.21-1.61,0.64c-0.39,0.43-0.58,1.02-0.58,1.77v6.3H135.18z"/>
			<path class="st7" d="M149.38,159.35c-0.78,0-1.46-0.15-2.03-0.45c-0.58-0.3-1.02-0.74-1.32-1.31c-0.31-0.57-0.46-1.24-0.46-2.02
				v-2.7c0-0.78,0.15-1.46,0.46-2.03c0.31-0.57,0.75-1,1.32-1.3c0.58-0.3,1.25-0.45,2.03-0.45c0.78,0,1.46,0.15,2.03,0.45
				c0.58,0.3,1.02,0.74,1.32,1.3c0.31,0.57,0.46,1.24,0.46,2.01v2.72c0,0.78-0.15,1.46-0.46,2.02c-0.31,0.57-0.75,1.01-1.32,1.31
				C150.84,159.2,150.16,159.35,149.38,159.35z M149.38,157.91c0.71,0,1.25-0.2,1.63-0.6c0.38-0.4,0.57-0.98,0.57-1.74v-2.7
				c0-0.76-0.19-1.33-0.57-1.74c-0.38-0.4-0.92-0.6-1.63-0.6s-1.25,0.2-1.63,0.6c-0.38,0.4-0.57,0.98-0.57,1.74v2.7
				c0,0.76,0.19,1.33,0.57,1.74C148.13,157.71,148.67,157.91,149.38,157.91z"/>
			<path class="st7" d="M158.74,159.17v-8.23h-2.88v-1.48h2.88v-0.95c0-0.77,0.23-1.37,0.7-1.82c0.47-0.44,1.1-0.67,1.91-0.67h3.06
				v1.48h-3.06c-0.31,0-0.56,0.09-0.73,0.26c-0.17,0.17-0.26,0.42-0.26,0.73v0.97h4.05v1.48h-4.05v8.23H158.74z"/>
			<path class="st7" d="M167.02,159.17v-1.48h3.51v-6.95h-3.06v-1.48h4.68v8.42h3.33v1.48H167.02z M170.98,147.56
				c-0.36,0-0.65-0.1-0.85-0.29c-0.21-0.19-0.31-0.45-0.31-0.77s0.11-0.59,0.32-0.79c0.22-0.2,0.5-0.31,0.85-0.31h0.36
				c0.35,0,0.63,0.1,0.85,0.31s0.32,0.47,0.32,0.79s-0.11,0.58-0.32,0.77c-0.22,0.19-0.5,0.29-0.85,0.29H170.98z"/>
			<path class="st7" d="M182.95,159.17c-0.88,0-1.57-0.25-2.1-0.76c-0.52-0.51-0.78-1.19-0.78-2.03v-8.87h-2.97v-1.48h4.59v10.35
				c0,0.41,0.11,0.73,0.34,0.96c0.23,0.23,0.53,0.35,0.92,0.35h3.33v1.48H182.95z"/>
			<path class="st7" d="M192.58,159.35c-0.77,0-1.44-0.16-2.02-0.47c-0.58-0.31-1.02-0.75-1.33-1.32c-0.31-0.57-0.47-1.23-0.47-1.99
				v-2.7c0-0.76,0.16-1.42,0.47-1.99c0.31-0.57,0.76-1.01,1.33-1.32c0.58-0.31,1.25-0.47,2.02-0.47s1.44,0.16,2.02,0.47
				c0.58,0.31,1.02,0.75,1.33,1.32c0.31,0.57,0.47,1.23,0.47,1.99v1.75h-6.05v0.95c0,0.79,0.19,1.39,0.57,1.8s0.93,0.61,1.67,0.61
				c0.62,0,1.12-0.11,1.48-0.33c0.37-0.22,0.59-0.55,0.68-1h1.62c-0.11,0.83-0.5,1.48-1.19,1.97
				C194.49,159.11,193.62,159.35,192.58,159.35z M194.81,152.87c0-0.79-0.19-1.4-0.57-1.81s-0.93-0.62-1.67-0.62
				s-1.29,0.21-1.67,0.62s-0.57,1.02-0.57,1.81v0.52h4.59l-0.13,0.14V152.87z"/>
			<path class="st6" d="M203.2,159.35c-0.38,0-0.71-0.14-0.96-0.41c-0.26-0.28-0.39-0.62-0.39-1.03s0.13-0.75,0.39-1.03
				c0.26-0.28,0.58-0.41,0.96-0.41h0.36c0.38,0,0.7,0.14,0.96,0.41c0.26,0.28,0.39,0.62,0.39,1.03s-0.13,0.75-0.39,1.03
				c-0.26,0.28-0.58,0.41-0.96,0.41H203.2z"/>
			<path class="st8" d="M214.18,159.35c-0.77,0-1.44-0.16-2.02-0.47c-0.58-0.31-1.02-0.75-1.33-1.32c-0.31-0.57-0.47-1.23-0.47-1.99
				v-2.7c0-0.76,0.16-1.42,0.47-1.99c0.31-0.57,0.76-1.01,1.33-1.32c0.58-0.31,1.25-0.47,2.02-0.47s1.44,0.16,2.02,0.47
				c0.58,0.31,1.02,0.75,1.33,1.32c0.31,0.57,0.47,1.23,0.47,1.99v1.75h-6.05v0.95c0,0.79,0.19,1.39,0.57,1.8s0.93,0.61,1.67,0.61
				c0.62,0,1.12-0.11,1.48-0.33c0.37-0.22,0.59-0.55,0.68-1h1.62c-0.11,0.83-0.5,1.48-1.19,1.97
				C216.09,159.11,215.22,159.35,214.18,159.35z M216.41,152.87c0-0.79-0.19-1.4-0.57-1.81s-0.93-0.62-1.67-0.62
				s-1.29,0.21-1.67,0.62s-0.57,1.02-0.57,1.81v0.52h4.59l-0.13,0.14V152.87z"/>
			<path class="st8" d="M224.4,159.35c-1,0-1.79-0.33-2.37-0.99c-0.58-0.66-0.87-1.55-0.87-2.68v-2.9c0-1.14,0.29-2.04,0.87-2.7
				s1.37-0.99,2.37-0.99c0.82,0,1.47,0.22,1.96,0.67c0.49,0.44,0.74,1.04,0.74,1.78l-0.32-0.38h0.36l-0.04-2.25v-2.88h1.62v13.14
				h-1.62v-1.89h-0.32l0.32-0.38c0,0.76-0.24,1.35-0.73,1.79C225.89,159.13,225.23,159.35,224.4,159.35z M224.94,157.95
				c0.67,0,1.2-0.21,1.58-0.63c0.38-0.42,0.58-1,0.58-1.75v-2.7c0-0.74-0.19-1.33-0.58-1.75c-0.38-0.42-0.91-0.63-1.58-0.63
				c-0.68,0-1.21,0.21-1.59,0.62s-0.57,1-0.57,1.75v2.7c0,0.76,0.19,1.34,0.57,1.75S224.26,157.95,224.94,157.95z"/>
			<path class="st8" d="M235.76,159.35c-1.14,0-2.05-0.34-2.74-1.03c-0.68-0.68-1.03-1.6-1.03-2.75v-6.3h1.62v6.3
				c0,0.74,0.19,1.32,0.57,1.74s0.9,0.62,1.57,0.62c0.68,0,1.22-0.21,1.6-0.62c0.38-0.41,0.58-0.99,0.58-1.74v-6.3h1.62v6.3
				c0,1.15-0.35,2.07-1.04,2.75C237.83,159.01,236.91,159.35,235.76,159.35z"/>
			<path class="st8" d="M246.65,159.35c-0.79,0-1.48-0.15-2.07-0.45s-1.04-0.74-1.35-1.31c-0.31-0.57-0.47-1.24-0.47-2.02v-2.7
				c0-0.78,0.16-1.46,0.47-2.03c0.31-0.57,0.76-1,1.35-1.3s1.28-0.45,2.07-0.45c1.14,0,2.06,0.31,2.75,0.92
				c0.7,0.61,1.06,1.45,1.1,2.5h-1.62c-0.04-0.62-0.25-1.11-0.64-1.46c-0.39-0.35-0.92-0.52-1.59-0.52c-0.71,0-1.26,0.2-1.67,0.61
				c-0.4,0.41-0.6,0.98-0.6,1.71v2.72c0,0.74,0.2,1.32,0.59,1.73s0.95,0.61,1.67,0.61c0.67,0,1.2-0.17,1.59-0.52
				c0.39-0.35,0.6-0.83,0.64-1.46h1.62c-0.04,1.06-0.4,1.89-1.1,2.5C248.71,159.04,247.79,159.35,246.65,159.35z"/>
			<path class="st8" d="M256.46,159.35c-1.01,0-1.81-0.26-2.41-0.79c-0.6-0.53-0.9-1.24-0.9-2.14c0-0.95,0.3-1.69,0.89-2.23
				c0.59-0.54,1.41-0.81,2.44-0.81h3.06v-0.95c0-0.6-0.19-1.06-0.57-1.39s-0.9-0.5-1.58-0.5c-0.59,0-1.07,0.12-1.46,0.36
				c-0.38,0.24-0.61,0.57-0.67,0.99h-1.62c0.11-0.84,0.5-1.51,1.19-2.02c0.68-0.5,1.54-0.76,2.57-0.76c1.15,0,2.06,0.29,2.74,0.87
				c0.67,0.58,1.01,1.38,1.01,2.39v6.8h-1.58v-1.89h-0.38l0.38-0.2c0,0.68-0.29,1.23-0.88,1.65S257.36,159.35,256.46,159.35z
				 M256.84,158.07c0.79,0,1.44-0.19,1.94-0.57c0.5-0.38,0.76-0.87,0.76-1.49v-1.4h-3.02c-0.54,0-0.97,0.15-1.28,0.45
				c-0.31,0.3-0.47,0.71-0.47,1.24c0,0.55,0.19,0.98,0.56,1.3C255.7,157.92,256.2,158.07,256.84,158.07z"/>
			<path class="st8" d="M269.26,159.17c-0.85,0-1.52-0.23-1.99-0.68c-0.47-0.46-0.71-1.1-0.71-1.93v-5.81h-2.79v-1.48h2.79v-2.7
				h1.62v2.7h3.96v1.48h-3.96v5.81c0,0.38,0.09,0.67,0.26,0.86c0.17,0.19,0.45,0.28,0.82,0.28h2.7v1.48H269.26z"/>
			<path class="st8" d="M275.02,159.17v-1.48h3.51v-6.95h-3.06v-1.48h4.68v8.42h3.33v1.48H275.02z M278.98,147.56
				c-0.36,0-0.65-0.1-0.85-0.29c-0.21-0.19-0.31-0.45-0.31-0.77s0.11-0.59,0.32-0.79c0.22-0.2,0.5-0.31,0.85-0.31h0.36
				c0.35,0,0.63,0.1,0.85,0.31s0.32,0.47,0.32,0.79s-0.11,0.58-0.32,0.77c-0.22,0.19-0.5,0.29-0.85,0.29H278.98z"/>
			<path class="st8" d="M289.78,159.35c-0.78,0-1.46-0.15-2.03-0.45c-0.58-0.3-1.02-0.74-1.32-1.31c-0.31-0.57-0.46-1.24-0.46-2.02
				v-2.7c0-0.78,0.15-1.46,0.46-2.03c0.31-0.57,0.75-1,1.32-1.3c0.58-0.3,1.25-0.45,2.03-0.45c0.78,0,1.46,0.15,2.03,0.45
				c0.58,0.3,1.02,0.74,1.32,1.3c0.31,0.57,0.46,1.24,0.46,2.01v2.72c0,0.78-0.15,1.46-0.46,2.02c-0.31,0.57-0.75,1.01-1.32,1.31
				C291.24,159.2,290.56,159.35,289.78,159.35z M289.78,157.91c0.71,0,1.25-0.2,1.63-0.6c0.38-0.4,0.57-0.98,0.57-1.74v-2.7
				c0-0.76-0.19-1.33-0.57-1.74c-0.38-0.4-0.92-0.6-1.63-0.6s-1.25,0.2-1.63,0.6c-0.38,0.4-0.57,0.98-0.57,1.74v2.7
				c0,0.76,0.19,1.33,0.57,1.74C288.53,157.71,289.07,157.91,289.78,157.91z"/>
			<path class="st8" d="M296.83,159.17v-9.9h1.62v1.89h0.34l-0.34,0.38c0-0.77,0.23-1.37,0.7-1.8c0.47-0.43,1.12-0.65,1.94-0.65
				c1,0,1.79,0.31,2.38,0.93c0.59,0.62,0.88,1.45,0.88,2.49v6.66h-1.62v-6.48c0-0.7-0.19-1.24-0.57-1.64
				c-0.38-0.4-0.89-0.59-1.54-0.59c-0.68,0-1.22,0.21-1.6,0.64c-0.38,0.43-0.58,1.02-0.58,1.77v6.3H296.83z"/>
			<path class="st6" d="M314.71,161.42c-1.7-0.42-3.03-1.25-3.98-2.48c-0.95-1.24-1.42-2.75-1.42-4.54v-3.42
				c0-1.16,0.22-2.23,0.66-3.19s1.06-1.77,1.87-2.43s1.77-1.13,2.87-1.4v1.53c-1.15,0.28-2.07,0.91-2.75,1.89
				c-0.68,0.98-1.03,2.18-1.03,3.6v3.42c0,1.39,0.34,2.57,1.02,3.55c0.68,0.97,1.6,1.6,2.76,1.87V161.42z"/>
			<path class="st6" d="M318.85,159.82c1.16-0.28,2.08-0.9,2.76-1.87c0.68-0.97,1.02-2.15,1.02-3.55v-3.42
				c0-1.42-0.34-2.62-1.03-3.6c-0.68-0.98-1.6-1.61-2.75-1.89v-1.53c1.1,0.28,2.06,0.74,2.87,1.4s1.43,1.47,1.87,2.43
				s0.66,2.02,0.66,3.19v3.42c0,1.79-0.47,3.3-1.42,4.54c-0.95,1.24-2.27,2.06-3.98,2.48V159.82z"/>
			<path class="st6" d="M131.11,183.02c-1.7-0.42-3.03-1.25-3.98-2.48c-0.95-1.24-1.42-2.75-1.42-4.54v-3.42
				c0-1.16,0.22-2.23,0.66-3.19s1.06-1.77,1.87-2.43s1.77-1.13,2.87-1.4v1.53c-1.15,0.28-2.07,0.91-2.75,1.89
				c-0.68,0.98-1.03,2.18-1.03,3.6V176c0,1.39,0.34,2.57,1.02,3.55c0.68,0.97,1.6,1.6,2.76,1.87V183.02z"/>
			<path class="st9" d="M134.71,172.4l1.44-5.6h2.34l-2.34,5.6H134.71z M138.85,172.4l1.44-5.6h2.34l-2.34,5.6H138.85z"/>
			<path class="st9" d="M149.45,180.95c-0.79,0-1.48-0.15-2.07-0.45s-1.04-0.74-1.35-1.31c-0.31-0.57-0.47-1.24-0.47-2.02v-5.94
				c0-0.78,0.16-1.46,0.47-2.03c0.31-0.57,0.76-1,1.35-1.3s1.28-0.45,2.07-0.45c0.78,0,1.46,0.15,2.04,0.46
				c0.58,0.31,1.03,0.74,1.34,1.31s0.47,1.24,0.47,2.01h-1.62c0-0.74-0.2-1.32-0.58-1.73c-0.39-0.41-0.94-0.61-1.65-0.61
				c-0.71,0-1.26,0.2-1.67,0.61c-0.4,0.41-0.6,0.98-0.6,1.71v5.96c0,0.74,0.2,1.32,0.59,1.73s0.95,0.61,1.67,0.61
				c0.71,0,1.26-0.2,1.65-0.61c0.39-0.41,0.58-0.98,0.58-1.73h1.62c0,0.77-0.16,1.44-0.47,2.01s-0.76,1.01-1.34,1.31
				C150.91,180.8,150.23,180.95,149.45,180.95z"/>
			<path class="st9" d="M159.26,180.95c-1.01,0-1.81-0.26-2.41-0.79c-0.6-0.53-0.9-1.24-0.9-2.14c0-0.95,0.3-1.69,0.89-2.23
				c0.59-0.54,1.41-0.81,2.44-0.81h3.06v-0.95c0-0.6-0.19-1.06-0.57-1.39s-0.9-0.5-1.58-0.5c-0.59,0-1.07,0.12-1.46,0.36
				c-0.38,0.24-0.61,0.57-0.67,0.99h-1.62c0.11-0.84,0.5-1.51,1.19-2.02c0.68-0.5,1.54-0.76,2.57-0.76c1.15,0,2.06,0.29,2.74,0.87
				c0.67,0.58,1.01,1.38,1.01,2.39v6.8h-1.58v-1.89H162l0.38-0.2c0,0.68-0.29,1.23-0.88,1.65S160.16,180.95,159.26,180.95z
				 M159.64,179.67c0.79,0,1.44-0.19,1.94-0.57c0.5-0.38,0.76-0.87,0.76-1.49v-1.4h-3.02c-0.54,0-0.97,0.15-1.28,0.45
				c-0.31,0.3-0.47,0.71-0.47,1.24c0,0.55,0.19,0.98,0.56,1.3C158.5,179.52,159,179.67,159.64,179.67z"/>
			<path class="st9" d="M172.15,180.77c-0.88,0-1.57-0.25-2.1-0.76c-0.52-0.51-0.78-1.19-0.78-2.03v-8.87h-2.97v-1.48h4.59v10.35
				c0,0.41,0.11,0.73,0.34,0.96c0.23,0.23,0.53,0.35,0.92,0.35h3.33v1.48H172.15z"/>
			<path class="st9" d="M182.86,180.77c-0.85,0-1.52-0.23-1.99-0.68c-0.47-0.46-0.71-1.1-0.71-1.93v-5.81h-2.79v-1.48h2.79v-2.7
				h1.62v2.7h3.96v1.48h-3.96v5.81c0,0.38,0.09,0.67,0.26,0.86c0.17,0.19,0.45,0.28,0.82,0.28h2.7v1.48H182.86z"/>
			<path class="st9" d="M192.58,180.95c-0.77,0-1.44-0.16-2.02-0.47c-0.58-0.31-1.02-0.75-1.33-1.32c-0.31-0.57-0.47-1.23-0.47-1.99
				v-2.7c0-0.76,0.16-1.42,0.47-1.99c0.31-0.57,0.76-1.01,1.33-1.32c0.58-0.31,1.25-0.47,2.02-0.47s1.44,0.16,2.02,0.47
				c0.58,0.31,1.02,0.75,1.33,1.32c0.31,0.57,0.47,1.23,0.47,1.99v1.75h-6.05v0.95c0,0.79,0.19,1.39,0.57,1.8s0.93,0.61,1.67,0.61
				c0.62,0,1.12-0.11,1.48-0.33c0.37-0.22,0.59-0.55,0.68-1h1.62c-0.11,0.83-0.5,1.48-1.19,1.97
				C194.49,180.71,193.62,180.95,192.58,180.95z M194.81,174.47c0-0.79-0.19-1.4-0.57-1.81s-0.93-0.62-1.67-0.62
				s-1.29,0.21-1.67,0.62s-0.57,1.02-0.57,1.81v0.52h4.59l-0.13,0.14V174.47z"/>
			<path class="st9" d="M203.45,180.95c-0.79,0-1.48-0.15-2.07-0.45s-1.04-0.74-1.35-1.31c-0.31-0.57-0.47-1.24-0.47-2.02v-2.7
				c0-0.78,0.16-1.46,0.47-2.03c0.31-0.57,0.76-1,1.35-1.3s1.28-0.45,2.07-0.45c1.14,0,2.06,0.31,2.75,0.92
				c0.7,0.61,1.06,1.45,1.1,2.5h-1.62c-0.04-0.62-0.25-1.11-0.64-1.46c-0.39-0.35-0.92-0.52-1.59-0.52c-0.71,0-1.26,0.2-1.67,0.61
				c-0.4,0.41-0.6,0.98-0.6,1.71v2.72c0,0.74,0.2,1.32,0.59,1.73s0.95,0.61,1.67,0.61c0.67,0,1.2-0.17,1.59-0.52
				c0.39-0.35,0.6-0.83,0.64-1.46h1.62c-0.04,1.06-0.4,1.89-1.1,2.5C205.51,180.65,204.59,180.95,203.45,180.95z"/>
			<path class="st9" d="M210.44,180.77v-13.14h1.62v3.24v1.89h0.34l-0.34,0.38c0-0.77,0.23-1.37,0.7-1.8
				c0.47-0.43,1.12-0.65,1.94-0.65c1,0,1.79,0.31,2.38,0.93c0.59,0.62,0.88,1.45,0.88,2.49v6.66h-1.62v-6.48
				c0-0.7-0.19-1.24-0.57-1.64c-0.38-0.4-0.89-0.59-1.54-0.59c-0.68,0-1.22,0.21-1.6,0.64c-0.38,0.43-0.58,1.02-0.58,1.77v6.3
				H210.44z"/>
			<path class="st9" d="M221.11,172.4l1.44-5.6h2.34l-2.34,5.6H221.11z M225.25,172.4l1.44-5.6h2.34l-2.34,5.6H225.25z"/>
			<path class="st6" d="M233.35,183.65l1.44-5.6h2.34l-2.34,5.6H233.35z"/>
			<path class="st10" d="M253.63,180.77v-1.66l4.01-4.27c0.68-0.73,1.18-1.38,1.49-1.95c0.31-0.57,0.47-1.12,0.47-1.65
				c0-0.73-0.2-1.31-0.6-1.73s-0.95-0.63-1.65-0.63c-0.77,0-1.37,0.22-1.81,0.65c-0.44,0.43-0.66,1.03-0.66,1.78h-1.62
				c0.02-0.78,0.21-1.46,0.55-2.05c0.34-0.59,0.82-1.04,1.42-1.35c0.61-0.31,1.31-0.47,2.11-0.47c0.78,0,1.46,0.15,2.05,0.46
				c0.59,0.31,1.04,0.74,1.35,1.31c0.31,0.57,0.47,1.24,0.47,2.01c0,0.74-0.2,1.48-0.59,2.21c-0.4,0.73-1.04,1.57-1.94,2.5
				l-3.24,3.35h5.99v1.48H253.63z"/>
			<path class="st10" d="M268.18,180.95c-0.8,0-1.5-0.16-2.1-0.48c-0.59-0.32-1.05-0.77-1.38-1.35c-0.32-0.58-0.49-1.26-0.49-2.04
				v-5.76c0-0.78,0.16-1.46,0.49-2.04c0.32-0.58,0.78-1.03,1.38-1.35c0.59-0.32,1.29-0.48,2.1-0.48c0.8,0,1.5,0.16,2.1,0.48
				c0.59,0.32,1.05,0.77,1.38,1.35s0.49,1.26,0.49,2.04v5.76c0,0.77-0.16,1.45-0.49,2.03s-0.79,1.04-1.39,1.36
				C269.67,180.79,268.97,180.95,268.18,180.95z M268.18,179.57c0.72,0,1.3-0.23,1.74-0.69c0.44-0.46,0.66-1.06,0.66-1.79v-5.76
				c0-0.73-0.22-1.33-0.66-1.79c-0.44-0.46-1.02-0.69-1.74-0.69c-0.72,0-1.3,0.23-1.74,0.69c-0.44,0.46-0.66,1.06-0.66,1.79v5.76
				c0,0.73,0.22,1.33,0.66,1.79C266.88,179.33,267.46,179.57,268.18,179.57z M268.18,175.28c-0.26,0-0.48-0.09-0.65-0.27
				c-0.17-0.18-0.25-0.42-0.25-0.72v-0.27c0-0.3,0.08-0.54,0.25-0.72c0.17-0.18,0.38-0.27,0.65-0.27c0.28,0,0.5,0.09,0.66,0.27
				c0.16,0.18,0.24,0.42,0.24,0.72v0.27c0,0.3-0.08,0.54-0.24,0.72C268.67,175.19,268.45,175.28,268.18,175.28z"/>
			<path class="st10" d="M275.23,180.77v-1.66l4.01-4.27c0.68-0.73,1.18-1.38,1.49-1.95c0.31-0.57,0.47-1.12,0.47-1.65
				c0-0.73-0.2-1.31-0.6-1.73s-0.95-0.63-1.65-0.63c-0.77,0-1.37,0.22-1.81,0.65c-0.44,0.43-0.66,1.03-0.66,1.78h-1.62
				c0.02-0.78,0.21-1.46,0.55-2.05c0.34-0.59,0.82-1.04,1.42-1.35c0.61-0.31,1.31-0.47,2.11-0.47c0.78,0,1.46,0.15,2.05,0.46
				c0.59,0.31,1.04,0.74,1.35,1.31c0.31,0.57,0.47,1.24,0.47,2.01c0,0.74-0.2,1.48-0.59,2.21c-0.4,0.73-1.04,1.57-1.94,2.5
				l-3.24,3.35h5.99v1.48H275.23z"/>
			<path class="st10" d="M289.58,180.95c-0.78,0-1.47-0.16-2.07-0.47s-1.06-0.76-1.39-1.33c-0.32-0.58-0.49-1.24-0.49-1.98h1.62
				c0,0.73,0.21,1.3,0.62,1.72s0.99,0.62,1.72,0.62c0.73,0,1.3-0.21,1.72-0.64c0.41-0.43,0.62-0.99,0.62-1.7v-0.94
				c0-0.74-0.2-1.32-0.61-1.73c-0.41-0.41-0.98-0.61-1.73-0.61h-1.35v-1.62l3.26-3.17h-5.33v-1.48h6.97v1.62l-3.51,3.4v-0.2
				c1.2,0,2.15,0.34,2.86,1.03c0.71,0.68,1.06,1.6,1.06,2.75v0.94c0,0.74-0.17,1.4-0.5,1.98s-0.8,1.02-1.4,1.33
				S290.36,180.95,289.58,180.95z"/>
			<path class="st6" d="M297.25,181.42c1.16-0.28,2.08-0.9,2.76-1.87c0.68-0.97,1.02-2.15,1.02-3.55v-3.42
				c0-1.42-0.34-2.62-1.03-3.6c-0.68-0.98-1.6-1.61-2.75-1.89v-1.53c1.1,0.28,2.06,0.74,2.87,1.4s1.43,1.47,1.87,2.43
				s0.66,2.02,0.66,3.19V176c0,1.79-0.47,3.3-1.42,4.54c-0.95,1.24-2.27,2.06-3.98,2.48V181.42z"/>
		</g>
	</g>
</g>
<rect x="179" y="-137" class="st11" width="800" height="200"/>
</svg>
