<svg id="Layer_1" data-name="Layer 1" xmlns="http://www.w3.org/2000/svg" xmlns:xlink="http://www.w3.org/1999/xlink" viewBox="0 0 800 200"><defs><style>.cls-1{fill:none;}.cls-2{clip-path:url(#clip-path);}.cls-3{fill:#9b0000;}.cls-4{fill:#161616;}.cls-5{fill:#0d0706;}.cls-6{fill:#fcfcfb;}.cls-7{fill:#ec2224;}.cls-8{fill:#fff;}.cls-9{fill:#b6eeff;}.cls-10{fill:#fff87b;}.cls-11{fill:#ce8452;}.cls-12{fill:#b3ffbc;}</style><clipPath id="clip-path"><rect class="cls-1" width="800" height="200" rx="10.79"/></clipPath></defs><g class="cls-2"><path class="cls-3" d="M236-63c4,0,156,339,160,339s488-48,488-48L839-26"/><polyline class="cls-4" points="379 -21 505 246 -10 234 -10 -17"/><path class="cls-5" d="M555.28,60H556c4.39,1.27,8.61,3,12.91,4.51,5.31,1.87,10.59,3.79,15.88,5.7S595.52,74,600.87,76c2.76,1,5.52,2,8.28,3,1,.37,1.14.54,1.15,1.63,0,1.67,0,1.68,1.67,1.33L635.62,77c1.68-.35,1.78-.29,2.43,1.27s1.29,3.06,1.93,4.59c.35.82.42.87,1.31.72l15.26-2.69q11.58-2,23.14-4.11c1.23-.22,1.48-.06,1.69,1.19.79,4.63,1.63,9.26,2.53,13.92.78-2.79,1.48-5.55,2.23-8.3.31-1.15.69-1.36,1.84-1q11.7,3.17,23.4,6.28c5.43,1.46,10.86,2.93,16.3,4.35.41.1.87.12,1.11.57v1.3a100.49,100.49,0,0,1-2.6,10.39c-1.47,5.58-3,11.15-4.48,16.72-1.16,4.31-2.34,8.63-3.46,13-.28,1.07-.7,1.28-1.91,1l-9.46-2.55-19.36-5.19c-3.42-.91-6.83-1.82-10.24-2.77a5.78,5.78,0,0,0-2.55-.12c-9.23,1.65-18.47,3.24-27.69,4.91-1.18.21-1.46,0-1.66-1.17-.47-2.84-1-5.68-1.49-8.52,0-.25,0-.53-.25-.74-.29,0-.48.18-.7.31q-13.61,8.24-27.17,16.53c-.35.21-.69.43-1,.62-.68.33-1.07.25-1.35-.43-1.09-2.67-2.07-5.38-3.07-7.84,0,1.6,0,3.43,0,5.26a.93.93,0,0,1-.84.94,2.07,2.07,0,0,1-.5,0c-2.16-.09-4.32.09-6.48.18-3,.13-6.05.16-9.06.38-1.39.1-2.79.09-4.18.13-2,.06-4,.13-6.05.21-3,.14-6.09.15-9.13.38-1.32.1-2.64.1-4,.13-2,0-4,.13-6.05.21-3,.12-6.09.15-9.13.38-1.39.1-2.79.09-4.18.13-2,0-4,.13-6,.21-2.71.11-5.43.15-8.13.38a13.14,13.14,0,0,1-1.66,0c-.84,0-1.07-.3-.87-1.15.25-1.06.53-2.1.83-3.14.42-1.47.42-1.47-1.1-1.85-4.54-1.14-9.09-2.26-13.64-3.42a4.83,4.83,0,0,0-2.33,0c-1.8.42-3.66.56-5.48.84-9.29,1.42-18.59,2.8-27.88,4.2-12.79,1.93-25.58,3.8-38.36,5.76-2.85.43-5.68.91-8.55,1.15H436v-.87a6.26,6.26,0,0,0,.34-1.6q3.44-14.89,6.86-29.78,3.3-14.37,6.59-28.74,1.95-8.51,3.9-17c.28-1.21.53-1.41,1.75-1.13,2.74.61,5.47,1.3,8.21,1.95l33.45,8c3,.73,6.07,1.47,9.11,2.17a1.62,1.62,0,0,1,1.39,1.28c.7,3.37,1.43,6.72,2.12,10.13.07-.43,0-.88.4-1.17s.83-.16,1.25-.12c5.71.58,11.42,1.23,17.12,1.84,6,.66,12.09,1.29,18.13,1.94.9.1,1,0,1.19-.83,2-7.42,4.05-14.83,6-22.26.31-1.16.64-2.32.94-3.48A1.06,1.06,0,0,1,555.28,60Z"/><path class="cls-6" d="M606.63,88l6.78-1.59,13-3.06,8.66-2.05c.89-.21.93-.2,1.25.59.7,1.65,1.37,3.32,2.06,5q2.19,5.2,4.37,10.39c.07.17.17.33.25.5l.15,0c-.64-3.63-1.28-7.26-1.94-11a6.22,6.22,0,0,1,.75-.22c3.46-.62,6.93-1.22,10.39-1.83l13.35-2.36c3.37-.59,6.74-1.21,10.1-1.81.83-.15,1.65-.29,2.48-.42.55-.09.66,0,.75.56q1.14,6.51,2.27,13c.54,3.09,1.09,6.17,1.66,9.38a2.9,2.9,0,0,0,.22-.47q2.28-8.5,4.55-17c.06-.23.13-.46.2-.69.18-.58.28-.65.88-.5.86.21,1.71.45,2.56.68L705.73,89l18.59,5c.71.19.75.25.55,1-.84,3.14-1.7,6.28-2.54,9.42q-2,7.4-4,14.78-1.49,5.55-3,11.09a3.58,3.58,0,0,1-.09.35c-.17.47-.25.52-.74.4-1.07-.27-2.13-.57-3.19-.85l-14.64-3.92-17.82-4.78a4.81,4.81,0,0,1-.67-.25c.17-.74.34-1.45.52-2.21l-30.91,5.44c-.62-3.49-1.22-6.89-1.85-10.38l-28.93,16.41a6.36,6.36,0,0,1-.41-.75l-3.84-9.76q-2.4-6.15-4.81-12.31c-.49-1.25-1-2.49-1.48-3.74a3.35,3.35,0,0,0-.21-.36,3.09,3.09,0,0,1-.62-1.35c-1.5-3.82-3-7.66-4.47-11.48-.54-1.35-.51-1.38.9-1.72l3.43-.81A2.12,2.12,0,0,1,606.63,88Z"/><path class="cls-7" d="M606.63,88c-.64.18-1.27.38-1.91.54-1.23.31-2.46.59-3.73.9.55,1.4,1.08,2.76,1.6,4.12q1.77,4.55,3.53,9.1a4.81,4.81,0,0,1,.21.83c-.06,1.7-.15,3.4-.17,5.11-.06,5.21-.09,10.42-.15,15.63,0,1.49-.09,3-.15,4.46,0,.56-.07.6-.63.62h-.5c-5.63,0-11.25,0-16.88,0l-29.33-.09-11.9-.05c-.3,0-.61,0-1-.06a6.86,6.86,0,0,1,.07-1c.6-2.57,1.23-5.13,1.84-7.69q2.26-9.45,4.53-18.88,1.58-6.59,3.14-13.15,2.43-10.26,4.87-20.51c.27-1.11.4-1.09,1.35-.77q13.46,4.5,26.92,9l17.07,5.65c.09,0,.19,0,.28.09.75.26.9.47.91,1.26v4.11C606.59,87.49,606.61,87.76,606.63,88Z"/><path class="cls-7" d="M508.48,122.79c-.85.12-1.7.25-2.55.34l-9.29.92-8.79.87c-2.39.24-4.77.47-7.15.72l-9,1-6.43.64c-3.12.31-6.24.64-9.36,1l-6.71.68a6,6,0,0,1-.61,0,6.14,6.14,0,0,1,0-1l2.55-14.51c.76-4.24,1.53-8.49,2.28-12.73q1.33-7.6,2.66-15.22c.79-4.51,1.6-9,2.39-13.52.27-1.56.53-3.12.8-4.68a4.64,4.64,0,0,1,.13-.49,3.89,3.89,0,0,1,.68,0c3.61.77,7.21,1.56,10.82,2.34l14.19,3.08q5.52,1.19,11,2.4c2.48.54,5,1.1,7.44,1.61a1.06,1.06,0,0,1,1,1c.67,3.68,1.38,7.35,2.07,11q.93,4.9,1.85,9.82c.26,1.36.51,2.73.77,4.1a4.19,4.19,0,0,0,.14.47c.28.29.15.63.1.95-.82,5.53-1.77,11-2.68,16.55l-.06.35c-.24,1.45-.28,1.61,1.14,1.9A.69.69,0,0,1,508.48,122.79Z"/><path class="cls-6" d="M508.48,122.79l-1.39-.36c-.74-.18-.8-.25-.69-1s.21-1.33.31-2q.72-4.28,1.42-8.55c.36-2.19.73-4.39,1.08-6.58.09-.54.14-1.08.2-1.62.14-.71.3-1.4.42-2.11q1-6,2-12c.08-.47.14-.94.22-1.41s.22-.64.69-.59c2.59.31,5.17.64,7.76.94,2.2.26,4.41.49,6.62.75l8.25,1c2.28.26,4.56.51,6.84.78l6.83.8,1,.1a5.31,5.31,0,0,1,0,.9c-.68,3.7-1.38,7.39-2.07,11.08-.75,4-1.48,8.09-2.23,12.14s-1.51,8-2.26,12.06c-.2,1.08-.39,2.16-.6,3.25-.11.58-.18.63-.76.49l-6.55-1.6-16.9-4.07-9.78-2.33Z"/><path class="cls-5" d="M629.05,102.19l3.28,2,6.4,3.86a3.22,3.22,0,0,0,2.72.55c.38-.13.42-.05.64.61-.22.12-.44.26-.67.37-1.09.55-2.2,1.06-3.27,1.65a1.07,1.07,0,0,1-1.25,0l-9.4-5.86-1-.65a1.9,1.9,0,0,0-2.7.34c.11.31.21.64.34,1,.83,2,1.66,4.09,2.5,6.12a11.3,11.3,0,0,0,.73,1.48,1.62,1.62,0,0,0,1.95.84c.42-.09.82-.24,1.24-.36.22-.06.43-.07.56.17s.15.46-.13.61l-.45.23c-2.59,1.3-5.19,2.59-7.78,3.9-.32.16-.62.35-.94.52s-.43.19-.57-.05-.28-.48,0-.72c.1-.1.23-.17.34-.26l.88-.62a2,2,0,0,0,.84-2.4c-.25-.86-.48-1.71-.81-2.54q-2.51-6.3-5.05-12.6c-.49-1.22-1-2.44-1.51-3.65a7.49,7.49,0,0,0-.46-.89,2.43,2.43,0,0,0-2.78-1.29l-.85.15a.52.52,0,0,1-.64-.43c-.09-.27,0-.38.26-.46,1.46-.39,2.91-.81,4.36-1.22,2.24-.62,4.46-1.28,6.71-1.86a11.6,11.6,0,0,1,4.84-.29,6.4,6.4,0,0,1,5.26,5.13c.56,2.32-.34,4.06-2,5.54C630.12,101.46,629.59,101.79,629.05,102.19Z"/><path class="cls-5" d="M707.66,122.66c-.66.06-.76,0-1-.5-.44-.93-.84-1.87-1.26-2.81q-3-6.76-6-13.53l-3.09-7c-.07-.15-.15-.29-.27-.54a3.15,3.15,0,0,0-.26.54q-1.85,6.94-3.67,13.88a15.68,15.68,0,0,0-.38,2.26,2.19,2.19,0,0,0,1.3,2.41l.85.39c.51.24.53.35.16,1l-8.58-2.3.12-.74c.37,0,.7,0,1,0a10.89,10.89,0,0,0,1.28,0,1.72,1.72,0,0,0,1.47-1,17.38,17.38,0,0,0,1-2.68c1.29-4.7,2.54-9.43,3.81-14.14.15-.58.34-1.15.44-1.74a1.83,1.83,0,0,0-.06-1,3.61,3.61,0,0,0-2.25-2.26c-.61-.17-.63-.38-.19-.94,1.9.51,3.81,1,5.73,1.52a1.16,1.16,0,0,1,.8.75q1.15,2.67,2.33,5.33l6.18,14.07c.18.41.37.82.63,1.39.32-1.18.6-2.18.86-3.18.86-3.26,1.73-6.52,2.56-9.79a10.89,10.89,0,0,0,.27-2.13,2.1,2.1,0,0,0-1.31-2c-.3-.15-.61-.27-.92-.4s-.47-.24-.36-.59.37-.34.64-.27l2.22.59,5.12,1.38.49.14c.24.06.38.19.34.46a.42.42,0,0,1-.49.4l-.64,0a2.5,2.5,0,0,0-3,1.65c-.5,1.42-1,2.86-1.36,4.32-1.06,3.85-2.08,7.72-3.11,11.58-.45,1.66-.91,3.32-1.35,5A5.41,5.41,0,0,0,707.66,122.66Z"/><path class="cls-5" d="M669,114c-.26-.6-.22-.71.29-.88.34-.12.7-.19,1-.32.81-.32,1-.8.71-1.58a21.08,21.08,0,0,0-1.24-2.35c-.5-.84-1.09-1.63-1.62-2.46a.83.83,0,0,0-1-.44c-2.8.52-5.61,1-8.41,1.49-.68.12-.69.12-.82.78-.32,1.59-.64,3.18-.92,4.78a1.45,1.45,0,0,0,1.32,1.82c.49.08,1,.1,1.56.15l.11.58a1,1,0,0,1-.24.1l-6.28,1.15a2.83,2.83,0,0,1-.71,0c-.14,0-.37-.11-.39-.2a1,1,0,0,1,.13-.52s.12-.08.18-.1a3,3,0,0,0,2-2.29c.42-1.55.88-3.09,1.25-4.65,1.18-5,2.32-10.07,3.48-15.1.33-1.42.67-2.84,1-4.27.06-.27.12-.52.44-.57a.72.72,0,0,1,.75.32l.44.66,12.67,19c.36.53.78,1,1.18,1.54a2.57,2.57,0,0,0,2,.93h.21a.44.44,0,0,1,.47.45c0,.29-.18.34-.42.38-1.2.21-2.39.44-3.59.66l-4.59.83A8.05,8.05,0,0,1,669,114Z"/><path class="cls-6" d="M598,93.65c-.84.13-1.15-.08-1.31-.88s-.33-1.59-.49-2.38a4.69,4.69,0,0,0-2.5-3.26,20.36,20.36,0,0,0-4.05-1.44l-1.6-.45a2.17,2.17,0,0,0-.22.56c-.1.78-.17,1.57-.25,2.35-.29,2.9-.58,5.8-.85,8.7-.17,1.74-.3,3.48-.47,5.22-.23,2.33-.49,4.66-.71,7-.14,1.4-.24,2.81-.31,4.22a7,7,0,0,0,.12,1.28,2.11,2.11,0,0,0,1.52,1.83c.79.27,1.6.48,2.41.69a.69.69,0,0,1,.5,1,.56.56,0,0,1-.41.18q-1.47-.08-2.94-.18l-3.65-.28c-1.54-.12-3.09-.26-4.64-.37-1.07-.08-2.15-.13-3.22-.21-.48,0-1-.08-1.48-.13v-.66a.44.44,0,0,1,.46-.51c.86-.07,1.71-.15,2.57-.25a2.85,2.85,0,0,0,2.85-2.48c.31-1.3.52-2.63.7-4,.36-2.75.68-5.5,1-8.25s.61-5.27.92-7.91c.34-2.92.68-5.84,1-8.75,0-.34,0-.48-.34-.57a34.07,34.07,0,0,0-6.22-1.38,3.92,3.92,0,0,0-3.82,1.69,29.51,29.51,0,0,0-1.48,2.63,1,1,0,0,1-1.53.34.79.79,0,0,1-.14-.87c.44-1.94.88-3.87,1.31-5.81.14-.61.27-1.21.39-1.77a1.13,1.13,0,0,1,1,0l12.57,3.61c4.14,1.2,8.28,2.38,12.42,3.57l.42.13a.6.6,0,0,1,.51.66q0,3.5-.07,7S598,93.63,598,93.65Z"/><path class="cls-6" d="M463.58,113.05a2.43,2.43,0,0,1-.05-.31c0-1.14-.07-1,1-1.26a6,6,0,0,0,4.09-2.81c.9-1.45,1.8-2.9,2.57-4.41,4.29-8.48,8.53-17,12.79-25.48.07-.15.14-.3.22-.45s.1-.6.46-.55.77.08,1,.5.45.9.67,1.35l3.65,7.43q2.08,4.23,4.18,8.45c1.82,3.67,3.63,7.36,5.46,11,.44.87.92,1.74,1.44,2.56a3.76,3.76,0,0,0,2.33,1.69c.92.21.93.22.78,1.22a.49.49,0,0,1-.19.07c-1.54,0-3.07.08-4.6.1-1.23,0-2.45,0-3.68.06s-2.2.09-3.3.14H492c-.47,0-.56-.12-.59-.54s.06-.67.52-.75,1.09-.18,1.63-.3c1-.23,1.28-.57,1.26-1.59a6.69,6.69,0,0,0-.66-2.56c-.93-2.08-1.88-4.15-2.81-6.22a1,1,0,0,0-.93-.64c-2-.07-4-.18-6-.28l-5.23-.29c-.5,0-1-.07-1.51-.09-.77,0-.94.06-1.25.78-.83,1.94-1.67,3.88-2.48,5.83a17.78,17.78,0,0,0-.75,2.16,3.66,3.66,0,0,0-.07,1.28,2,2,0,0,0,1.32,1.74,6.68,6.68,0,0,0,2.38.47c.54,0,.62.13.62.73s-.1.65-.62.66h-5.55c-.32,0-.66-.12-.92.22-.08.1-.37.06-.56.06h-6.19Z"/><path class="cls-5" d="M516.07,94c0-.75.06-.89.66-.84,1,.09,1.95.24,2.92.36.38,0,.76.1,1.14.11a2.51,2.51,0,0,1,2.26,1.29c.52.92,1,1.85,1.52,2.77l5.88,10.87,2.58,4.73c.1.19.22.36.42.69.12-.52.23-.89.29-1.27q1-5.76,2-11.51c.09-.55.15-1.09.19-1.64a2.34,2.34,0,0,0-1.4-2.52,10.18,10.18,0,0,0-1.18-.5c-.33-.1-.51-.25-.45-.61s.19-.5.67-.46,1.23.13,1.85.21l6,.84.64.09c.3,0,.51.12.52.47s-.08.55-.51.64-.75.08-1.13.12a2.62,2.62,0,0,0-2.69,2.32c-.38,1.68-.71,3.37-1,5.07q-1,5.54-2,11.08c-.36,2-.7,4-1,6.06-.79.26-1,.17-1.38-.47l-6.25-11.57-5.81-10.75a3.55,3.55,0,0,0-.25-.36c-.1.47-.19.87-.26,1.26l-1.65,9.84c-.11.66-.22,1.32-.36,2a14.71,14.71,0,0,0-.21,3.44,1.93,1.93,0,0,0,1.23,1.86c.33.14.66.29,1,.46.51.28.53.58.08,1.07l-7.14-1.56-.63-.14a.47.47,0,0,1-.4-.58.43.43,0,0,1,.5-.41h1a1.93,1.93,0,0,0,2.2-1.71c.24-1,.41-1.92.57-2.89q1.23-7.17,2.45-14.35a3,3,0,0,0-1.72-3.1C516.83,94.21,516.46,94.11,516.07,94Z"/><path class="cls-6" d="M623.91,92.06a4.79,4.79,0,0,1,4.52,2.66,8.51,8.51,0,0,1,.78,2.22,4.17,4.17,0,0,1-1.69,4.17,16.15,16.15,0,0,1-3.55,2c-1,.43-1,.41-1.34-.57l-3.12-7.73c-.53-1.32-.41-1.6.92-2.06A12,12,0,0,1,623.91,92.06Z"/><path class="cls-6" d="M660.92,94.79c2.09,3.14,4.06,6.29,6.15,9.51-.37.1-.58.19-.81.23l-7.13,1.25c-.66.11-.75,0-.59-.67q1.1-5,2.22-9.93A1.78,1.78,0,0,1,660.92,94.79Z"/><path class="cls-7" d="M483.87,83.61l6.42,14L478,96.82a1.25,1.25,0,0,1,.2-1.07q1.17-2.55,2.36-5.08C481.65,88.37,482.73,86.07,483.87,83.61Z"/><path class="cls-8" d="M86.2,31.1v-15h1.62v15Zm7.74,0v-15h1.62l10.71,6.66v1.8L95.56,31.1Zm9.63-6.73a14.12,14.12,0,0,1,1.28-.7c-.4-.21-.82-.45-1.28-.74l-8-4.93V29.23Z"/><path class="cls-9" d="M124,32.81V19.67h1.62v1.89H126l-.32.38a2.25,2.25,0,0,1,.74-1.79,2.85,2.85,0,0,1,2-.66,3,3,0,0,1,2.35,1,3.93,3.93,0,0,1,.87,2.68v2.9a4,4,0,0,1-.87,2.7,3,3,0,0,1-2.35,1,2.89,2.89,0,0,1-2-.66,2.31,2.31,0,0,1-.74-1.79l.32.38h-.36l0,2.25v2.88Zm3.79-4.46a2.06,2.06,0,0,0,1.59-.61A2.56,2.56,0,0,0,130,26v-2.7a2.53,2.53,0,0,0-.56-1.76,2,2,0,0,0-1.59-.61,2.06,2.06,0,0,0-1.59.63,2.46,2.46,0,0,0-.58,1.74V26a2.47,2.47,0,0,0,.58,1.75A2.06,2.06,0,0,0,127.83,28.35Z"/><path class="cls-9" d="M135.18,29.57v-9.9h1.58v1.89h.38l-.52,1.17a3.68,3.68,0,0,1,.69-2.42,2.53,2.53,0,0,1,2.06-.82,3.29,3.29,0,0,1,2.5,1,3.76,3.76,0,0,1,.92,2.66v.59h-1.62v-.45a2.6,2.6,0,0,0-.56-1.78,2.37,2.37,0,0,0-3.23,0,2.52,2.52,0,0,0-.58,1.77v6.3Z"/><path class="cls-9" d="M149.38,29.75a4.31,4.31,0,0,1-2-.45A3.09,3.09,0,0,1,146,28a4.31,4.31,0,0,1-.46-2v-2.7a4.27,4.27,0,0,1,.46-2,3.11,3.11,0,0,1,1.33-1.31,4.8,4.8,0,0,1,4.06,0,3.11,3.11,0,0,1,1.33,1.31,4.25,4.25,0,0,1,.46,2V26a4.31,4.31,0,0,1-.46,2,3.09,3.09,0,0,1-1.33,1.3A4.31,4.31,0,0,1,149.38,29.75Zm0-1.44a2.14,2.14,0,0,0,1.63-.6,2.43,2.43,0,0,0,.57-1.74v-2.7a2.47,2.47,0,0,0-.57-1.74,2.51,2.51,0,0,0-3.26,0,2.47,2.47,0,0,0-.57,1.74V26a2.43,2.43,0,0,0,.57,1.74A2.14,2.14,0,0,0,149.38,28.31Z"/><path class="cls-9" d="M158.74,29.57V21.35h-2.88V19.87h2.88v-.95a2.37,2.37,0,0,1,.7-1.82,2.65,2.65,0,0,1,1.91-.67h3.06v1.48h-3.06a1,1,0,0,0-.73.26,1,1,0,0,0-.26.73v1h4v1.48h-4v8.22Z"/><path class="cls-9" d="M167,29.57V28.1h3.51v-7h-3.06V19.67h4.68V28.1h3.33v1.47ZM171,18a1.2,1.2,0,0,1-.86-.29,1,1,0,0,1-.31-.77,1.05,1.05,0,0,1,.32-.79,1.17,1.17,0,0,1,.85-.31h.36a1.17,1.17,0,0,1,.85.31,1.05,1.05,0,0,1,.32.79,1,1,0,0,1-.32.77,1.2,1.2,0,0,1-.85.29Z"/><path class="cls-9" d="M183,29.57a2.88,2.88,0,0,1-2.1-.76,2.72,2.72,0,0,1-.78-2V17.91h-3V16.43h4.59V26.78a1.3,1.3,0,0,0,.34,1,1.22,1.22,0,0,0,.92.36h3.33v1.47Z"/><path class="cls-9" d="M192.58,29.75a4.1,4.1,0,0,1-2-.47A3.25,3.25,0,0,1,189.23,28a4.09,4.09,0,0,1-.47-2v-2.7a4.12,4.12,0,0,1,.47-2A3.25,3.25,0,0,1,190.56,20a4.58,4.58,0,0,1,4,0,3.25,3.25,0,0,1,1.33,1.32,4.12,4.12,0,0,1,.47,2V25h-6.05V26a2.56,2.56,0,0,0,.57,1.8,2.13,2.13,0,0,0,1.66.61,2.85,2.85,0,0,0,1.48-.33,1.39,1.39,0,0,0,.68-1h1.62a2.73,2.73,0,0,1-1.19,2A4.33,4.33,0,0,1,192.58,29.75Zm2.23-6.48a2.65,2.65,0,0,0-.56-1.81,2.17,2.17,0,0,0-1.67-.62,2.14,2.14,0,0,0-1.66.62,2.6,2.6,0,0,0-.57,1.81v.52h4.59l-.13.15Z"/><path class="cls-8" d="M203.2,29.75a1.28,1.28,0,0,1-1-.41,1.45,1.45,0,0,1-.39-1,1.41,1.41,0,0,1,.39-1,1.26,1.26,0,0,1,1-.42h.36a1.26,1.26,0,0,1,1,.42,1.41,1.41,0,0,1,.39,1,1.45,1.45,0,0,1-.39,1,1.28,1.28,0,0,1-1,.41Z"/><path class="cls-10" d="M210.44,29.57v-9.9h1.62v1.89h.34l-.34.38a2.31,2.31,0,0,1,.7-1.8,2.76,2.76,0,0,1,1.94-.65,3.13,3.13,0,0,1,2.38.93,3.46,3.46,0,0,1,.88,2.49v6.66h-1.62V23.09a2.29,2.29,0,0,0-.57-1.64,2.31,2.31,0,0,0-3.14.05,2.56,2.56,0,0,0-.57,1.77v6.3Z"/><path class="cls-10" d="M224.06,29.75a3.5,3.5,0,0,1-2.41-.79,2.71,2.71,0,0,1-.9-2.14,2.87,2.87,0,0,1,.89-2.23,3.49,3.49,0,0,1,2.44-.81h3.06v-1a1.74,1.74,0,0,0-.57-1.39,2.31,2.31,0,0,0-1.57-.5,2.7,2.7,0,0,0-1.46.36,1.37,1.37,0,0,0-.67,1h-1.62a2.86,2.86,0,0,1,1.19-2,4.2,4.2,0,0,1,2.58-.76,4,4,0,0,1,2.73.87,3,3,0,0,1,1,2.39v6.8h-1.58V27.68h-.38l.38-.2a1.92,1.92,0,0,1-.89,1.65A3.79,3.79,0,0,1,224.06,29.75Zm.38-1.28a3.19,3.19,0,0,0,1.94-.56,1.77,1.77,0,0,0,.76-1.49V25h-3a1.77,1.77,0,0,0-1.28.45,1.83,1.83,0,0,0,.09,2.54A2.27,2.27,0,0,0,224.44,28.47Z"/><path class="cls-10" d="M231.57,29.57v-9.9H233v1.19h.32l-.25.43A1.89,1.89,0,0,1,233.5,20a1.54,1.54,0,0,1,1.2-.49,1.52,1.52,0,0,1,1.28.61,2.89,2.89,0,0,1,.45,1.73l-.49-1h.76l-.34.43a1.84,1.84,0,0,1,.45-1.31,1.6,1.6,0,0,1,1.22-.49,1.71,1.71,0,0,1,1.44.69,3,3,0,0,1,.52,1.87v7.52H238.5V22a1.53,1.53,0,0,0-.26-1,1,1,0,0,0-1.53,0,1.39,1.39,0,0,0-.28.94v7.56h-1.3V22a1.42,1.42,0,0,0-.28-1,.93.93,0,0,0-.78-.35.9.9,0,0,0-.75.34,1.5,1.5,0,0,0-.26.94v7.56Z"/><path class="cls-10" d="M246.58,29.75a4.1,4.1,0,0,1-2-.47A3.25,3.25,0,0,1,243.23,28a4.09,4.09,0,0,1-.47-2v-2.7a4.12,4.12,0,0,1,.47-2A3.25,3.25,0,0,1,244.56,20a4.58,4.58,0,0,1,4,0,3.25,3.25,0,0,1,1.33,1.32,4.12,4.12,0,0,1,.47,2V25h-6.05V26a2.6,2.6,0,0,0,.56,1.8,2.17,2.17,0,0,0,1.67.61,2.85,2.85,0,0,0,1.48-.33,1.39,1.39,0,0,0,.68-1h1.62a2.77,2.77,0,0,1-1.19,2A4.33,4.33,0,0,1,246.58,29.75Zm2.23-6.48a2.6,2.6,0,0,0-.57-1.81,2.14,2.14,0,0,0-1.66-.62,2.17,2.17,0,0,0-1.67.62,2.65,2.65,0,0,0-.56,1.81v.52h4.59l-.13.15Z"/><path class="cls-8" d="M260.71,31.82a6.93,6.93,0,0,1-4-2.48,7.23,7.23,0,0,1-1.42-4.54V21.38A7.54,7.54,0,0,1,256,18.2a6.56,6.56,0,0,1,1.87-2.43,7.29,7.29,0,0,1,2.87-1.41v1.53A4.56,4.56,0,0,0,258,17.78a6.14,6.14,0,0,0-1,3.6V24.8a6,6,0,0,0,1,3.55,4.51,4.51,0,0,0,2.76,1.87Z"/><path class="cls-8" d="M264.85,30.22a4.57,4.57,0,0,0,2.76-1.87,6,6,0,0,0,1-3.55V21.38a6.14,6.14,0,0,0-1-3.6,4.56,4.56,0,0,0-2.75-1.89V14.36a7.35,7.35,0,0,1,2.87,1.41,6.67,6.67,0,0,1,1.87,2.43,7.54,7.54,0,0,1,.66,3.18V24.8a7.3,7.3,0,0,1-1.42,4.54,7,7,0,0,1-4,2.48Z"/><path class="cls-8" d="M126.16,53.15V36.23h4.41v1.44h-2.79v14h2.79v1.44Z"/><path class="cls-11" d="M134.53,42.8l2.34-5.6h1.44l-1.44,5.6Zm4.14,0L141,37.2h1.44L141,42.8Z"/><path class="cls-11" d="M144.88,51.17,148.3,38h2.18l3.4,13.14h-1.64l-.86-3.49h-4l-.86,3.49Zm2.84-4.86H151l-1-4.05c-.33-1.32-.54-2.3-.65-2.93-.11.65-.32,1.62-.65,2.91Z"/><path class="cls-11" d="M156.44,51.17v-9.9h1.62v1.89h.34l-.34.38a2.31,2.31,0,0,1,.7-1.8,2.76,2.76,0,0,1,1.94-.65,3.13,3.13,0,0,1,2.38.93,3.46,3.46,0,0,1,.88,2.49v6.66h-1.62V44.69a2.29,2.29,0,0,0-.57-1.64,2.31,2.31,0,0,0-3.14.05,2.56,2.56,0,0,0-.57,1.77v6.3Z"/><path class="cls-11" d="M181,51.17V39.49h-3.6V38h8.82v1.48h-3.6V51.17Z"/><path class="cls-11" d="M189.18,51.17v-9.9h1.58v1.89h.38l-.52,1.17a3.68,3.68,0,0,1,.69-2.42,2.53,2.53,0,0,1,2.06-.82,3.29,3.29,0,0,1,2.5,1,3.76,3.76,0,0,1,.92,2.66v.59h-1.62v-.45a2.55,2.55,0,0,0-.57-1.78,2,2,0,0,0-1.61-.63,2.07,2.07,0,0,0-1.61.64,2.52,2.52,0,0,0-.58,1.77v6.3Z"/><path class="cls-11" d="M202.46,51.35a3.5,3.5,0,0,1-2.41-.79,2.71,2.71,0,0,1-.9-2.14,2.87,2.87,0,0,1,.89-2.23,3.49,3.49,0,0,1,2.44-.81h3.06v-1A1.74,1.74,0,0,0,205,43a2.29,2.29,0,0,0-1.57-.5,2.7,2.7,0,0,0-1.46.36,1.37,1.37,0,0,0-.67,1h-1.62a2.86,2.86,0,0,1,1.19-2,4.2,4.2,0,0,1,2.58-.76,4,4,0,0,1,2.73.87,3,3,0,0,1,1,2.39v6.8h-1.58V49.28h-.38l.38-.2a1.92,1.92,0,0,1-.89,1.65A3.79,3.79,0,0,1,202.46,51.35Zm.38-1.28a3.19,3.19,0,0,0,1.94-.56,1.77,1.77,0,0,0,.76-1.49v-1.4h-3a1.77,1.77,0,0,0-1.28.45,1.83,1.83,0,0,0,.09,2.54A2.27,2.27,0,0,0,202.84,50.07Z"/><path class="cls-11" d="M210.44,51.17v-9.9h1.62v1.89h.34l-.34.38a2.31,2.31,0,0,1,.7-1.8,2.76,2.76,0,0,1,1.94-.65,3.13,3.13,0,0,1,2.38.93,3.46,3.46,0,0,1,.88,2.49v6.66h-1.62V44.69a2.29,2.29,0,0,0-.57-1.64,2.31,2.31,0,0,0-3.14.05,2.56,2.56,0,0,0-.57,1.77v6.3Z"/><path class="cls-11" d="M221.11,42.8l1.44-5.6h2.34l-2.34,5.6Zm4.14,0,1.44-5.6H229l-2.34,5.6Z"/><path class="cls-8" d="M233.35,54.05l1.44-5.6h2.34l-2.34,5.6Z"/><path class="cls-11" d="M253.33,42.8l2.34-5.6h1.44l-1.44,5.6Zm4.14,0,2.34-5.6h1.44l-1.44,5.6Z"/><path class="cls-11" d="M263.68,51.17,267.1,38h2.18l3.4,13.14H271l-.86-3.49h-4l-.87,3.49Zm2.84-4.86h3.31l-1-4.05c-.33-1.32-.54-2.3-.65-2.93-.11.65-.33,1.62-.65,2.91Z"/><path class="cls-11" d="M277.88,51.17l-3.22-9.9h1.65l2.11,6.66c.22.69.41,1.35.59,2,.18-.65.38-1.31.6-2l2.05-6.66h1.64l-3.22,9.9Z"/><path class="cls-11" d="M288.86,51.35a3.5,3.5,0,0,1-2.41-.79,2.71,2.71,0,0,1-.9-2.14,2.87,2.87,0,0,1,.89-2.23,3.49,3.49,0,0,1,2.44-.81h3.06v-1a1.74,1.74,0,0,0-.57-1.39,2.31,2.31,0,0,0-1.57-.5,2.7,2.7,0,0,0-1.46.36,1.34,1.34,0,0,0-.67,1h-1.62a2.86,2.86,0,0,1,1.19-2,4.17,4.17,0,0,1,2.57-.76,4,4,0,0,1,2.74.87,3,3,0,0,1,1,2.39v6.8H292V49.28h-.37l.37-.2a1.91,1.91,0,0,1-.88,1.65A3.81,3.81,0,0,1,288.86,51.35Zm.38-1.28a3.19,3.19,0,0,0,1.94-.56,1.77,1.77,0,0,0,.76-1.49v-1.4h-3a1.74,1.74,0,0,0-1.27.45,1.83,1.83,0,0,0,.09,2.54A2.27,2.27,0,0,0,289.24,50.07Z"/><path class="cls-11" d="M297.18,51.17v-9.9h1.58v1.89h.38l-.52,1.17a3.68,3.68,0,0,1,.69-2.42,2.53,2.53,0,0,1,2.06-.82,3.27,3.27,0,0,1,2.49,1,3.72,3.72,0,0,1,.93,2.66v.59h-1.62v-.45a2.55,2.55,0,0,0-.57-1.78,2,2,0,0,0-1.61-.63,2.07,2.07,0,0,0-1.61.64,2.52,2.52,0,0,0-.58,1.77v6.3Z"/><path class="cls-11" d="M311.38,51.35a4.1,4.1,0,0,1-2-.47A3.25,3.25,0,0,1,308,49.56a4.09,4.09,0,0,1-.47-2v-2.7a4.12,4.12,0,0,1,.47-2,3.25,3.25,0,0,1,1.33-1.32,4.21,4.21,0,0,1,2-.47,4.15,4.15,0,0,1,2,.47,3.28,3.28,0,0,1,1.34,1.32,4.12,4.12,0,0,1,.46,2v1.75h-6v1a2.56,2.56,0,0,0,.56,1.8,2.17,2.17,0,0,0,1.67.61,2.85,2.85,0,0,0,1.48-.33,1.42,1.42,0,0,0,.68-1h1.62a2.77,2.77,0,0,1-1.19,2A4.33,4.33,0,0,1,311.38,51.35Zm2.23-6.48a2.6,2.6,0,0,0-.57-1.81,2.14,2.14,0,0,0-1.66-.62,2.17,2.17,0,0,0-1.67.62,2.6,2.6,0,0,0-.56,1.81v.52h4.59l-.13.15Z"/><path class="cls-11" d="M323.35,51.17a2.87,2.87,0,0,1-2.1-.76,2.72,2.72,0,0,1-.78-2V39.51h-3V38h4.59V48.38a1.3,1.3,0,0,0,.34,1,1.21,1.21,0,0,0,.92.36h3.33v1.47Z"/><path class="cls-11" d="M329.11,42.8l1.44-5.6h2.34l-2.34,5.6Zm4.14,0,1.44-5.6H337l-2.34,5.6Z"/><path class="cls-8" d="M341.08,53.15V51.71h2.79v-14h-2.79V36.23h4.41V53.15Z"/><path class="cls-8" d="M86.2,95.9v-15h1.62v15Zm7.74,0v-15h1.62l10.71,6.66v1.8L95.56,95.9Zm9.63-6.73a14.12,14.12,0,0,1,1.28-.7c-.4-.21-.82-.45-1.28-.74l-8-4.93V94Z"/><path class="cls-9" d="M124,97.61V84.47h1.62v1.89H126l-.32.38A2.25,2.25,0,0,1,126.4,85a2.85,2.85,0,0,1,2-.66,3,3,0,0,1,2.35,1A3.91,3.91,0,0,1,131.6,88v2.9a4,4,0,0,1-.87,2.7,3,3,0,0,1-2.35,1,2.84,2.84,0,0,1-2-.67,2.27,2.27,0,0,1-.74-1.78l.32.38h-.36l0,2.25v2.88Zm3.79-4.46a2.06,2.06,0,0,0,1.59-.61,2.56,2.56,0,0,0,.56-1.77v-2.7a2.51,2.51,0,0,0-.56-1.76,2,2,0,0,0-1.59-.61,2.06,2.06,0,0,0-1.59.63,2.46,2.46,0,0,0-.58,1.74v2.7a2.47,2.47,0,0,0,.58,1.75A2.06,2.06,0,0,0,127.83,93.15Z"/><path class="cls-9" d="M135.18,94.37v-9.9h1.58v1.89h.38l-.52,1.17a3.68,3.68,0,0,1,.69-2.42,2.53,2.53,0,0,1,2.06-.82,3.29,3.29,0,0,1,2.5,1,3.76,3.76,0,0,1,.92,2.66v.59h-1.62v-.45a2.6,2.6,0,0,0-.56-1.78,2.37,2.37,0,0,0-3.23,0,2.52,2.52,0,0,0-.58,1.77v6.3Z"/><path class="cls-9" d="M149.38,94.55a4.31,4.31,0,0,1-2-.45A3.09,3.09,0,0,1,146,92.8a4.31,4.31,0,0,1-.46-2v-2.7a4.27,4.27,0,0,1,.46-2,3.11,3.11,0,0,1,1.33-1.31,4.8,4.8,0,0,1,4.06,0,3.11,3.11,0,0,1,1.33,1.31,4.25,4.25,0,0,1,.46,2v2.72a4.31,4.31,0,0,1-.46,2,3.09,3.09,0,0,1-1.33,1.3A4.31,4.31,0,0,1,149.38,94.55Zm0-1.44a2.14,2.14,0,0,0,1.63-.6,2.43,2.43,0,0,0,.57-1.74v-2.7a2.47,2.47,0,0,0-.57-1.74,2.51,2.51,0,0,0-3.26,0,2.47,2.47,0,0,0-.57,1.74v2.7a2.43,2.43,0,0,0,.57,1.74A2.14,2.14,0,0,0,149.38,93.11Z"/><path class="cls-9" d="M158.74,94.37V86.15h-2.88V84.67h2.88v-1a2.37,2.37,0,0,1,.7-1.81,2.65,2.65,0,0,1,1.91-.67h3.06v1.48h-3.06a1,1,0,0,0-.73.26,1,1,0,0,0-.26.73v1h4v1.48h-4v8.22Z"/><path class="cls-9" d="M167,94.37V92.9h3.51V86h-3.06V84.47h4.68V92.9h3.33v1.47Zm4-11.61a1.2,1.2,0,0,1-.86-.29,1,1,0,0,1-.31-.77,1.05,1.05,0,0,1,.32-.79,1.17,1.17,0,0,1,.85-.31h.36a1.17,1.17,0,0,1,.85.31,1.05,1.05,0,0,1,.32.79,1,1,0,0,1-.32.77,1.2,1.2,0,0,1-.85.29Z"/><path class="cls-9" d="M183,94.37a2.88,2.88,0,0,1-2.1-.76,2.72,2.72,0,0,1-.78-2V82.71h-3V81.23h4.59V91.58a1.3,1.3,0,0,0,.34,1,1.22,1.22,0,0,0,.92.36h3.33v1.47Z"/><path class="cls-9" d="M192.58,94.55a4.21,4.21,0,0,1-2-.47,3.25,3.25,0,0,1-1.33-1.32,4.09,4.09,0,0,1-.47-2v-2.7a4.12,4.12,0,0,1,.47-2,3.25,3.25,0,0,1,1.33-1.32,4.58,4.58,0,0,1,4,0,3.25,3.25,0,0,1,1.33,1.32,4.12,4.12,0,0,1,.47,2v1.75h-6.05v1a2.56,2.56,0,0,0,.57,1.8,2.13,2.13,0,0,0,1.66.61,2.85,2.85,0,0,0,1.48-.33,1.41,1.41,0,0,0,.68-1h1.62a2.73,2.73,0,0,1-1.19,2A4.33,4.33,0,0,1,192.58,94.55Zm2.23-6.48a2.65,2.65,0,0,0-.56-1.81,2.17,2.17,0,0,0-1.67-.62,2.14,2.14,0,0,0-1.66.62,2.6,2.6,0,0,0-.57,1.81v.52h4.59l-.13.15Z"/><path class="cls-8" d="M203.2,94.55a1.28,1.28,0,0,1-1-.41,1.56,1.56,0,0,1,0-2.06,1.28,1.28,0,0,1,1-.41h.36a1.28,1.28,0,0,1,1,.41,1.56,1.56,0,0,1,0,2.06,1.28,1.28,0,0,1-1,.41Z"/><path class="cls-10" d="M210.22,94.37V92.9h3.51V86h-3.06V84.47h4.68V92.9h3.33v1.47Zm4-11.61a1.2,1.2,0,0,1-.86-.29,1,1,0,0,1-.31-.77,1.05,1.05,0,0,1,.32-.79,1.17,1.17,0,0,1,.85-.31h.36a1.17,1.17,0,0,1,.85.31,1.05,1.05,0,0,1,.32.79,1,1,0,0,1-.32.77,1.2,1.2,0,0,1-.85.29Z"/><path class="cls-10" d="M221.24,94.37v-9.9h1.62v1.89h.34l-.34.38a2.31,2.31,0,0,1,.7-1.8,2.76,2.76,0,0,1,1.94-.65,3.13,3.13,0,0,1,2.38.93,3.46,3.46,0,0,1,.88,2.49v6.66h-1.62V87.89a2.29,2.29,0,0,0-.57-1.64,2.31,2.31,0,0,0-3.14,0,2.56,2.56,0,0,0-.57,1.77v6.3Z"/><path class="cls-10" d="M236.86,94.37a2.78,2.78,0,0,1-2-.68,2.57,2.57,0,0,1-.71-1.93V86h-2.79V84.47h2.79v-2.7h1.62v2.7h4V86h-4v5.81a1.24,1.24,0,0,0,.26.86,1.1,1.1,0,0,0,.82.28h2.7v1.47Z"/><path class="cls-10" d="M246.58,94.55a4.21,4.21,0,0,1-2-.47,3.25,3.25,0,0,1-1.33-1.32,4.09,4.09,0,0,1-.47-2v-2.7a4.12,4.12,0,0,1,.47-2,3.25,3.25,0,0,1,1.33-1.32,4.58,4.58,0,0,1,4,0,3.25,3.25,0,0,1,1.33,1.32,4.12,4.12,0,0,1,.47,2v1.75h-6.05v1a2.6,2.6,0,0,0,.56,1.8,2.17,2.17,0,0,0,1.67.61,2.85,2.85,0,0,0,1.48-.33,1.41,1.41,0,0,0,.68-1h1.62a2.77,2.77,0,0,1-1.19,2A4.33,4.33,0,0,1,246.58,94.55Zm2.23-6.48a2.6,2.6,0,0,0-.57-1.81,2.14,2.14,0,0,0-1.66-.62,2.17,2.17,0,0,0-1.67.62,2.65,2.65,0,0,0-.56,1.81v.52h4.59l-.13.15Z"/><path class="cls-10" d="M254,94.37v-9.9h1.58v1.89h.38l-.52,1.17a3.68,3.68,0,0,1,.69-2.42,2.53,2.53,0,0,1,2.06-.82,3.27,3.27,0,0,1,2.49,1,3.72,3.72,0,0,1,.93,2.66v.59H260v-.45a2.55,2.55,0,0,0-.57-1.78,2,2,0,0,0-1.61-.63,2.07,2.07,0,0,0-1.61.64,2.52,2.52,0,0,0-.58,1.77v6.3Z"/><path class="cls-10" d="M268.18,94.55a4.21,4.21,0,0,1-2-.47,3.25,3.25,0,0,1-1.33-1.32,4.09,4.09,0,0,1-.47-2v-2.7a4.12,4.12,0,0,1,.47-2,3.25,3.25,0,0,1,1.33-1.32,4.21,4.21,0,0,1,2-.47,4.15,4.15,0,0,1,2,.47,3.28,3.28,0,0,1,1.34,1.32,4.12,4.12,0,0,1,.46,2v1.75h-6v1a2.6,2.6,0,0,0,.56,1.8,2.17,2.17,0,0,0,1.67.61,2.85,2.85,0,0,0,1.48-.33,1.44,1.44,0,0,0,.68-1H272a2.77,2.77,0,0,1-1.19,2A4.33,4.33,0,0,1,268.18,94.55Zm2.23-6.48a2.6,2.6,0,0,0-.57-1.81,2.14,2.14,0,0,0-1.66-.62,2.17,2.17,0,0,0-1.67.62,2.65,2.65,0,0,0-.56,1.81v.52h4.59l-.13.15Z"/><path class="cls-10" d="M278.58,94.55a4.48,4.48,0,0,1-1.75-.32,2.9,2.9,0,0,1-1.19-.91,2.8,2.8,0,0,1-.53-1.38h1.62a1.3,1.3,0,0,0,.59.86,2.31,2.31,0,0,0,1.26.31h.76a2.14,2.14,0,0,0,1.41-.4,1.29,1.29,0,0,0,.48-1.06,1.23,1.23,0,0,0-.42-1,2.58,2.58,0,0,0-1.26-.5l-1.33-.22A4,4,0,0,1,276,89a2.54,2.54,0,0,1-.7-1.91,2.59,2.59,0,0,1,.87-2.09,3.77,3.77,0,0,1,2.52-.74h.68a3.62,3.62,0,0,1,2.28.68,2.76,2.76,0,0,1,1.05,1.82h-1.62a1.2,1.2,0,0,0-.56-.77,2.11,2.11,0,0,0-1.15-.29h-.68a2.08,2.08,0,0,0-1.34.36,1.31,1.31,0,0,0-.43,1,1.13,1.13,0,0,0,.35.9,2.45,2.45,0,0,0,1.15.42l1.33.22a4.35,4.35,0,0,1,2.33.93,2.58,2.58,0,0,1,.73,2,2.77,2.77,0,0,1-.89,2.19,3.89,3.89,0,0,1-2.62.78Z"/><path class="cls-10" d="M290.86,94.37a2.78,2.78,0,0,1-2-.68,2.57,2.57,0,0,1-.71-1.93V86h-2.79V84.47h2.79v-2.7h1.62v2.7h4V86h-4v5.81a1.24,1.24,0,0,0,.26.86,1.1,1.1,0,0,0,.82.28h2.7v1.47Z"/><path class="cls-10" d="M300.18,94.55a4.44,4.44,0,0,1-1.75-.32,2.9,2.9,0,0,1-1.19-.91,2.71,2.71,0,0,1-.53-1.38h1.62a1.3,1.3,0,0,0,.59.86,2.31,2.31,0,0,0,1.26.31h.76a2.14,2.14,0,0,0,1.41-.4,1.29,1.29,0,0,0,.48-1.06,1.23,1.23,0,0,0-.42-1,2.58,2.58,0,0,0-1.26-.5l-1.33-.22a4,4,0,0,1-2.18-.91,2.54,2.54,0,0,1-.7-1.91,2.59,2.59,0,0,1,.87-2.09,3.77,3.77,0,0,1,2.52-.74H301a3.62,3.62,0,0,1,2.28.68,2.76,2.76,0,0,1,1,1.82h-1.62a1.2,1.2,0,0,0-.56-.77,2.11,2.11,0,0,0-1.15-.29h-.68a2.08,2.08,0,0,0-1.34.36,1.31,1.31,0,0,0-.43,1,1.13,1.13,0,0,0,.35.9,2.45,2.45,0,0,0,1.15.42l1.33.22a4.35,4.35,0,0,1,2.33.93,2.58,2.58,0,0,1,.73,2,2.77,2.77,0,0,1-.89,2.19,3.89,3.89,0,0,1-2.62.78Z"/><path class="cls-8" d="M314.71,96.62a6.93,6.93,0,0,1-4-2.48,7.23,7.23,0,0,1-1.42-4.54V86.18A7.69,7.69,0,0,1,310,83a6.7,6.7,0,0,1,1.88-2.43,7.29,7.29,0,0,1,2.87-1.41v1.53A4.61,4.61,0,0,0,312,82.58a6.2,6.2,0,0,0-1,3.6V89.6a6.13,6.13,0,0,0,1,3.55A4.56,4.56,0,0,0,314.71,95Z"/><path class="cls-8" d="M318.85,95a4.57,4.57,0,0,0,2.76-1.87,6.06,6.06,0,0,0,1-3.55V86.18a6.14,6.14,0,0,0-1-3.6,4.56,4.56,0,0,0-2.75-1.89V79.16a7.35,7.35,0,0,1,2.87,1.41A6.67,6.67,0,0,1,323.59,83a7.54,7.54,0,0,1,.66,3.18V89.6a7.3,7.3,0,0,1-1.42,4.54,7,7,0,0,1-4,2.48Z"/><path class="cls-8" d="M126.16,118V101h4.41v1.44h-2.79v14h2.79V118Z"/><path class="cls-11" d="M134.71,107.6l1.44-5.6h2.34l-2.34,5.6Zm4.14,0,1.44-5.6h2.34l-2.34,5.6Z"/><path class="cls-11" d="M149.45,116.15a5.19,5.19,0,0,1-2.21-.43,3.2,3.2,0,0,1-1.44-1.24,3.63,3.63,0,0,1-.52-1.93h1.62a2,2,0,0,0,.67,1.59,2.83,2.83,0,0,0,1.88.57,2.59,2.59,0,0,0,1.78-.57,2,2,0,0,0,.63-1.55,2.23,2.23,0,0,0-1.63-2.22l-1.79-.55a4,4,0,0,1-2.07-1.38,3.68,3.68,0,0,1-.73-2.3,3.56,3.56,0,0,1,.47-1.83,3.31,3.31,0,0,1,1.35-1.24,4.53,4.53,0,0,1,2-.44,3.9,3.9,0,0,1,2.76,1,3.42,3.42,0,0,1,1.07,2.56H151.7a2,2,0,0,0-.58-1.53,2.3,2.3,0,0,0-1.65-.56,2.4,2.4,0,0,0-1.63.52,1.77,1.77,0,0,0-.58,1.41,2.28,2.28,0,0,0,.43,1.4,2.33,2.33,0,0,0,1.24.85l1.8.58a3.74,3.74,0,0,1,2.75,3.72,3.46,3.46,0,0,1-.5,1.88,3.37,3.37,0,0,1-1.42,1.27A4.74,4.74,0,0,1,149.45,116.15Z"/><path class="cls-11" d="M158,119.21l1.46-3.85-3.64-9.29h1.8l2.21,6.12q.18.53.42,1.44.21-.91.39-1.44l2.07-6.12h1.75l-4.73,13.14Z"/><path class="cls-11" d="M170.58,116.15a4.48,4.48,0,0,1-1.75-.32,3,3,0,0,1-1.19-.91,2.8,2.8,0,0,1-.53-1.38h1.62a1.3,1.3,0,0,0,.59.86,2.31,2.31,0,0,0,1.26.31h.76a2.18,2.18,0,0,0,1.41-.39,1.32,1.32,0,0,0,.48-1.07,1.23,1.23,0,0,0-.42-1,2.68,2.68,0,0,0-1.25-.5l-1.34-.22a3.9,3.9,0,0,1-2.17-.91,2.51,2.51,0,0,1-.71-1.91,2.59,2.59,0,0,1,.87-2.09,3.77,3.77,0,0,1,2.52-.74h.68a3.62,3.62,0,0,1,2.28.68,2.76,2.76,0,0,1,1.05,1.82h-1.62a1.2,1.2,0,0,0-.56-.77,2.11,2.11,0,0,0-1.15-.29h-.68a2,2,0,0,0-1.33.36,1.29,1.29,0,0,0-.44,1,1.12,1.12,0,0,0,.35.89,2.45,2.45,0,0,0,1.15.42l1.33.22a4.32,4.32,0,0,1,2.33.93,2.58,2.58,0,0,1,.73,2,2.77,2.77,0,0,1-.89,2.19,3.87,3.87,0,0,1-2.62.78Z"/><path class="cls-11" d="M182.86,116a2.79,2.79,0,0,1-2-.68,2.57,2.57,0,0,1-.71-1.93v-5.81h-2.79v-1.48h2.79v-2.7h1.62v2.7h4v1.48h-4v5.81a1.24,1.24,0,0,0,.26.86,1.11,1.11,0,0,0,.82.28h2.7V116Z"/><path class="cls-11" d="M192.58,116.15a4.1,4.1,0,0,1-2-.47,3.25,3.25,0,0,1-1.33-1.32,4.09,4.09,0,0,1-.47-2v-2.7a4.12,4.12,0,0,1,.47-2,3.25,3.25,0,0,1,1.33-1.32,4.58,4.58,0,0,1,4,0,3.25,3.25,0,0,1,1.33,1.32,4.12,4.12,0,0,1,.47,2v1.75h-6.05v1a2.56,2.56,0,0,0,.57,1.8,2.13,2.13,0,0,0,1.66.61,2.85,2.85,0,0,0,1.48-.33,1.39,1.39,0,0,0,.68-1h1.62a2.73,2.73,0,0,1-1.19,2A4.33,4.33,0,0,1,192.58,116.15Zm2.23-6.48a2.65,2.65,0,0,0-.56-1.81,2.17,2.17,0,0,0-1.67-.62,2.14,2.14,0,0,0-1.66.62,2.6,2.6,0,0,0-.57,1.81v.52h4.59l-.13.15Z"/><path class="cls-11" d="M199.17,116v-9.9h1.42v1.19h.32l-.25.43a1.89,1.89,0,0,1,.44-1.31,1.54,1.54,0,0,1,1.2-.49,1.52,1.52,0,0,1,1.28.61,2.89,2.89,0,0,1,.45,1.73l-.49-1h.76l-.34.43a1.81,1.81,0,0,1,.46-1.31,1.56,1.56,0,0,1,1.21-.49,1.71,1.71,0,0,1,1.44.69,3,3,0,0,1,.52,1.87V116H206.1v-7.54a1.53,1.53,0,0,0-.26-1,.92.92,0,0,0-.77-.35.94.94,0,0,0-.76.34,1.39,1.39,0,0,0-.28.94V116h-1.3v-7.54a1.42,1.42,0,0,0-.28-1,.93.93,0,0,0-.78-.35.92.92,0,0,0-.75.34,1.5,1.5,0,0,0-.26.94V116Z"/><path class="cls-11" d="M213.78,116.15a4.48,4.48,0,0,1-1.75-.32,2.9,2.9,0,0,1-1.19-.91,2.8,2.8,0,0,1-.53-1.38h1.62a1.3,1.3,0,0,0,.59.86,2.31,2.31,0,0,0,1.26.31h.76a2.19,2.19,0,0,0,1.41-.39,1.32,1.32,0,0,0,.48-1.07,1.23,1.23,0,0,0-.42-1,2.68,2.68,0,0,0-1.25-.5l-1.34-.22a3.9,3.9,0,0,1-2.17-.91,2.51,2.51,0,0,1-.71-1.91,2.59,2.59,0,0,1,.87-2.09,3.77,3.77,0,0,1,2.52-.74h.68a3.62,3.62,0,0,1,2.28.68,2.76,2.76,0,0,1,1.05,1.82h-1.62a1.2,1.2,0,0,0-.56-.77,2.11,2.11,0,0,0-1.15-.29h-.68a2,2,0,0,0-1.33.36,1.29,1.29,0,0,0-.44,1,1.12,1.12,0,0,0,.35.89,2.45,2.45,0,0,0,1.15.42l1.33.22a4.35,4.35,0,0,1,2.33.93,2.58,2.58,0,0,1,.73,2,2.77,2.77,0,0,1-.89,2.19,3.89,3.89,0,0,1-2.62.78Z"/><path class="cls-11" d="M221.11,107.6l1.44-5.6h2.34l-2.34,5.6Zm4.14,0,1.44-5.6H229l-2.34,5.6Z"/><path class="cls-8" d="M233.35,118.85l1.44-5.6h2.34l-2.34,5.6Z"/><path class="cls-11" d="M253.33,107.6l2.34-5.6h1.44l-1.44,5.6Zm4.14,0,2.34-5.6h1.44l-1.44,5.6Z"/><path class="cls-11" d="M264.49,116V102.81h7.74v1.48h-6.16v4.39h5.69v1.48h-5.65V116Z"/><path class="cls-11" d="M279,116.15a3.52,3.52,0,0,1-3.76-3.78v-6.3h1.62v6.3a2.48,2.48,0,0,0,.57,1.74,2,2,0,0,0,1.57.62,2.09,2.09,0,0,0,1.6-.62,2.44,2.44,0,0,0,.58-1.74v-6.3h1.62v6.3a3.55,3.55,0,0,1-3.8,3.78Z"/><path class="cls-11" d="M291,116a2.87,2.87,0,0,1-2.1-.76,2.72,2.72,0,0,1-.78-2v-8.87h-3v-1.48h4.59v10.35a1.3,1.3,0,0,0,.34,1,1.21,1.21,0,0,0,.92.36h3.33V116Z"/><path class="cls-11" d="M301.75,116a2.87,2.87,0,0,1-2.1-.76,2.72,2.72,0,0,1-.78-2v-8.87h-3v-1.48h4.59v10.35a1.3,1.3,0,0,0,.34,1,1.21,1.21,0,0,0,.92.36h3.33V116Z"/><path class="cls-11" d="M307.51,110.75v-1.44h7.74v1.44Z"/><path class="cls-11" d="M321.78,116.15a4.44,4.44,0,0,1-1.75-.32,2.9,2.9,0,0,1-1.19-.91,2.71,2.71,0,0,1-.53-1.38h1.62a1.3,1.3,0,0,0,.59.86,2.31,2.31,0,0,0,1.26.31h.76a2.19,2.19,0,0,0,1.41-.39,1.32,1.32,0,0,0,.48-1.07,1.21,1.21,0,0,0-.43-1,2.59,2.59,0,0,0-1.25-.5l-1.33-.22a4,4,0,0,1-2.18-.91,2.54,2.54,0,0,1-.7-1.91,2.59,2.59,0,0,1,.87-2.09,3.77,3.77,0,0,1,2.52-.74h.68a3.64,3.64,0,0,1,2.28.68,2.76,2.76,0,0,1,1.05,1.82h-1.62a1.2,1.2,0,0,0-.56-.77,2.11,2.11,0,0,0-1.15-.29h-.68a2.08,2.08,0,0,0-1.34.36,1.31,1.31,0,0,0-.43,1,1.12,1.12,0,0,0,.35.89,2.45,2.45,0,0,0,1.15.42l1.33.22a4.35,4.35,0,0,1,2.33.93,2.62,2.62,0,0,1,.73,2,2.77,2.77,0,0,1-.89,2.19,3.89,3.89,0,0,1-2.62.78Z"/><path class="cls-11" d="M334.06,116a2.78,2.78,0,0,1-2-.68,2.54,2.54,0,0,1-.71-1.93v-5.81h-2.79v-1.48h2.79v-2.7H333v2.7h4v1.48h-4v5.81a1.2,1.2,0,0,0,.26.86,1.1,1.1,0,0,0,.82.28h2.7V116Z"/><path class="cls-11" d="M342.86,116.15a3.5,3.5,0,0,1-2.41-.79,2.71,2.71,0,0,1-.9-2.14,2.84,2.84,0,0,1,.89-2.23,3.49,3.49,0,0,1,2.44-.81h3.06v-1a1.74,1.74,0,0,0-.57-1.39,2.31,2.31,0,0,0-1.57-.5,2.7,2.7,0,0,0-1.46.36,1.34,1.34,0,0,0-.67,1h-1.62a2.86,2.86,0,0,1,1.19-2,4.17,4.17,0,0,1,2.57-.76,4,4,0,0,1,2.74.87,3,3,0,0,1,1,2.39V116H346v-1.89h-.37l.37-.2a1.91,1.91,0,0,1-.88,1.65A3.81,3.81,0,0,1,342.86,116.15Zm.38-1.28a3.19,3.19,0,0,0,1.94-.56,1.77,1.77,0,0,0,.76-1.49v-1.4h-3a1.74,1.74,0,0,0-1.27.45,1.83,1.83,0,0,0,.09,2.54A2.27,2.27,0,0,0,343.24,114.87Z"/><path class="cls-11" d="M354.65,116.15a4.51,4.51,0,0,1-2.07-.45,3.08,3.08,0,0,1-1.35-1.3,4.2,4.2,0,0,1-.47-2v-2.7a4.16,4.16,0,0,1,.47-2,3.11,3.11,0,0,1,1.35-1.31,4.51,4.51,0,0,1,2.07-.45,4,4,0,0,1,2.75.92,3.29,3.29,0,0,1,1.1,2.5h-1.62a2,2,0,0,0-.64-1.46,2.34,2.34,0,0,0-1.59-.52,2.28,2.28,0,0,0-1.67.61,2.34,2.34,0,0,0-.6,1.71v2.72a2.36,2.36,0,0,0,.6,1.73,2.2,2.2,0,0,0,1.67.61,2.29,2.29,0,0,0,1.59-.52,2,2,0,0,0,.64-1.46h1.62a3.27,3.27,0,0,1-1.1,2.5A4,4,0,0,1,354.65,116.15Z"/><path class="cls-11" d="M361.69,116V102.83h1.62v7.33H365l2.88-4.09h1.85l-3.33,4.72,3.38,5.18h-1.89l-2.88-4.41h-1.74V116Z"/><path class="cls-11" d="M372.31,107.6l1.44-5.6h2.34l-2.34,5.6Zm4.14,0,1.44-5.6h2.34l-2.34,5.6Z"/><path class="cls-8" d="M384.28,118v-1.44h2.79v-14h-2.79V101h4.41V118Z"/><path class="cls-8" d="M86.2,160.7v-15h1.62v15Zm7.74,0v-15h1.62l10.71,6.66v1.8L95.56,160.7Zm9.63-6.73a14.12,14.12,0,0,1,1.28-.7c-.4-.21-.82-.45-1.28-.74l-8-4.93v11.23Z"/><path class="cls-9" d="M124,162.41V149.27h1.62v1.89H126l-.32.38a2.25,2.25,0,0,1,.74-1.79,2.85,2.85,0,0,1,2-.66,3,3,0,0,1,2.35,1,3.91,3.91,0,0,1,.87,2.68v2.9a4,4,0,0,1-.87,2.7,3,3,0,0,1-2.35,1,2.84,2.84,0,0,1-2-.67,2.27,2.27,0,0,1-.74-1.78l.32.38h-.36l0,2.25v2.88Zm3.79-4.46a2,2,0,0,0,1.59-.62,2.51,2.51,0,0,0,.56-1.76v-2.7a2.51,2.51,0,0,0-.56-1.76,2,2,0,0,0-1.59-.61,2.09,2.09,0,0,0-1.59.62,2.48,2.48,0,0,0-.58,1.75v2.7a2.47,2.47,0,0,0,.58,1.75A2.06,2.06,0,0,0,127.83,158Z"/><path class="cls-9" d="M135.18,159.17v-9.9h1.58v1.89h.38l-.52,1.17a3.68,3.68,0,0,1,.69-2.42,2.53,2.53,0,0,1,2.06-.82,3.29,3.29,0,0,1,2.5,1,3.76,3.76,0,0,1,.92,2.66v.59h-1.62v-.45a2.6,2.6,0,0,0-.56-1.78,2.37,2.37,0,0,0-3.23,0,2.52,2.52,0,0,0-.58,1.77v6.3Z"/><path class="cls-9" d="M149.38,159.35a4.31,4.31,0,0,1-2-.45,3.09,3.09,0,0,1-1.33-1.3,4.31,4.31,0,0,1-.46-2v-2.7a4.27,4.27,0,0,1,.46-2,3.11,3.11,0,0,1,1.33-1.31,4.8,4.8,0,0,1,4.06,0,3.11,3.11,0,0,1,1.33,1.31,4.22,4.22,0,0,1,.46,2v2.72a4.31,4.31,0,0,1-.46,2,3.09,3.09,0,0,1-1.33,1.3A4.31,4.31,0,0,1,149.38,159.35Zm0-1.44a2.14,2.14,0,0,0,1.63-.6,2.43,2.43,0,0,0,.57-1.74v-2.7a2.47,2.47,0,0,0-.57-1.74,2.51,2.51,0,0,0-3.26,0,2.47,2.47,0,0,0-.57,1.74v2.7a2.43,2.43,0,0,0,.57,1.74A2.14,2.14,0,0,0,149.38,157.91Z"/><path class="cls-9" d="M158.74,159.17V151h-2.88v-1.48h2.88v-1a2.37,2.37,0,0,1,.7-1.81,2.65,2.65,0,0,1,1.91-.67h3.06v1.48h-3.06a1,1,0,0,0-.73.26,1,1,0,0,0-.26.73v1h4V151h-4v8.22Z"/><path class="cls-9" d="M167,159.17V157.7h3.51v-6.95h-3.06v-1.48h4.68v8.43h3.33v1.47Zm4-11.61a1.24,1.24,0,0,1-.86-.29,1,1,0,0,1-.31-.77,1,1,0,0,1,.32-.79,1.17,1.17,0,0,1,.85-.31h.36a1.17,1.17,0,0,1,.85.31,1,1,0,0,1,.32.79,1,1,0,0,1-.32.77,1.25,1.25,0,0,1-.85.29Z"/><path class="cls-9" d="M183,159.17a2.88,2.88,0,0,1-2.1-.76,2.72,2.72,0,0,1-.78-2v-8.87h-3V146h4.59v10.35a1.3,1.3,0,0,0,.34,1,1.22,1.22,0,0,0,.92.36h3.33v1.47Z"/><path class="cls-9" d="M192.58,159.35a4.21,4.21,0,0,1-2-.47,3.25,3.25,0,0,1-1.33-1.32,4.09,4.09,0,0,1-.47-2v-2.7a4.12,4.12,0,0,1,.47-2,3.25,3.25,0,0,1,1.33-1.32,4.58,4.58,0,0,1,4,0,3.25,3.25,0,0,1,1.33,1.32,4.12,4.12,0,0,1,.47,2v1.75h-6.05v.95a2.56,2.56,0,0,0,.57,1.8,2.13,2.13,0,0,0,1.66.61,2.85,2.85,0,0,0,1.48-.33,1.41,1.41,0,0,0,.68-1h1.62a2.73,2.73,0,0,1-1.19,2A4.33,4.33,0,0,1,192.58,159.35Zm2.23-6.48a2.65,2.65,0,0,0-.56-1.81,2.17,2.17,0,0,0-1.67-.62,2.14,2.14,0,0,0-1.66.62,2.6,2.6,0,0,0-.57,1.81v.52h4.59l-.13.15Z"/><path class="cls-8" d="M203.2,159.35a1.28,1.28,0,0,1-1-.41,1.56,1.56,0,0,1,0-2.06,1.28,1.28,0,0,1,1-.41h.36a1.28,1.28,0,0,1,1,.41,1.56,1.56,0,0,1,0,2.06,1.28,1.28,0,0,1-1,.41Z"/><path class="cls-10" d="M214.18,159.35a4.21,4.21,0,0,1-2-.47,3.25,3.25,0,0,1-1.33-1.32,4.09,4.09,0,0,1-.47-2v-2.7a4.12,4.12,0,0,1,.47-2,3.25,3.25,0,0,1,1.33-1.32,4.58,4.58,0,0,1,4,0,3.25,3.25,0,0,1,1.33,1.32,4.12,4.12,0,0,1,.47,2v1.75H212v.95a2.6,2.6,0,0,0,.56,1.8,2.17,2.17,0,0,0,1.67.61,2.85,2.85,0,0,0,1.48-.33,1.41,1.41,0,0,0,.68-1H218a2.73,2.73,0,0,1-1.19,2A4.33,4.33,0,0,1,214.18,159.35Zm2.23-6.48a2.6,2.6,0,0,0-.57-1.81,2.14,2.14,0,0,0-1.66-.62,2.17,2.17,0,0,0-1.67.62,2.65,2.65,0,0,0-.56,1.81v.52h4.59l-.13.15Z"/><path class="cls-10" d="M224.4,159.35a3,3,0,0,1-2.36-1,3.87,3.87,0,0,1-.88-2.68v-2.9a3.9,3.9,0,0,1,.88-2.7,3,3,0,0,1,2.36-1,2.82,2.82,0,0,1,2,.67,2.26,2.26,0,0,1,.73,1.78l-.32-.38h.36l0-2.25V146h1.62v13.14H227.1v-1.89h-.32l.32-.38a2.26,2.26,0,0,1-.73,1.79A2.81,2.81,0,0,1,224.4,159.35Zm.54-1.4a2,2,0,0,0,1.59-.63,2.51,2.51,0,0,0,.57-1.75v-2.7a2.53,2.53,0,0,0-.57-1.75,2.08,2.08,0,0,0-1.59-.62,2,2,0,0,0-1.59.62,2.49,2.49,0,0,0-.57,1.75v2.7a2.52,2.52,0,0,0,.57,1.76A2.06,2.06,0,0,0,224.94,158Z"/><path class="cls-10" d="M235.76,159.35a3.69,3.69,0,0,1-2.73-1,3.73,3.73,0,0,1-1-2.76v-6.3h1.62v6.3a2.48,2.48,0,0,0,.57,1.74,2,2,0,0,0,1.57.62,2.07,2.07,0,0,0,1.6-.62,2.44,2.44,0,0,0,.58-1.74v-6.3h1.62v6.3a3.55,3.55,0,0,1-3.8,3.78Z"/><path class="cls-10" d="M246.65,159.35a4.51,4.51,0,0,1-2.07-.45,3.08,3.08,0,0,1-1.35-1.3,4.2,4.2,0,0,1-.47-2v-2.7a4.16,4.16,0,0,1,.47-2,3.11,3.11,0,0,1,1.35-1.31,4.51,4.51,0,0,1,2.07-.45,4.05,4.05,0,0,1,2.76.92,3.32,3.32,0,0,1,1.09,2.5h-1.62a2,2,0,0,0-.64-1.46,2.34,2.34,0,0,0-1.59-.52,2.24,2.24,0,0,0-1.66.61,2.31,2.31,0,0,0-.61,1.71v2.72a2.36,2.36,0,0,0,.6,1.73,2.2,2.2,0,0,0,1.67.61,2.29,2.29,0,0,0,1.59-.52,2,2,0,0,0,.64-1.46h1.62a3.3,3.3,0,0,1-1.09,2.5A4.05,4.05,0,0,1,246.65,159.35Z"/><path class="cls-10" d="M256.46,159.35a3.5,3.5,0,0,1-2.41-.79,2.71,2.71,0,0,1-.9-2.14,2.89,2.89,0,0,1,.89-2.24,3.49,3.49,0,0,1,2.44-.8h3.06v-1A1.74,1.74,0,0,0,259,151a2.31,2.31,0,0,0-1.57-.5,2.7,2.7,0,0,0-1.46.36,1.34,1.34,0,0,0-.67,1h-1.62a2.86,2.86,0,0,1,1.19-2,4.18,4.18,0,0,1,2.58-.76,4,4,0,0,1,2.73.87,3,3,0,0,1,1,2.39v6.8h-1.58v-1.89h-.38l.38-.2a1.92,1.92,0,0,1-.89,1.65A3.81,3.81,0,0,1,256.46,159.35Zm.38-1.28a3.19,3.19,0,0,0,1.94-.56,1.77,1.77,0,0,0,.76-1.49v-1.4h-3a1.77,1.77,0,0,0-1.28.45,1.81,1.81,0,0,0,.09,2.53A2.22,2.22,0,0,0,256.84,158.07Z"/><path class="cls-10" d="M269.26,159.17a2.78,2.78,0,0,1-2-.68,2.57,2.57,0,0,1-.71-1.93v-5.81h-2.79v-1.48h2.79v-2.7h1.62v2.7h4v1.48h-4v5.81a1.24,1.24,0,0,0,.26.86,1.1,1.1,0,0,0,.82.28H272v1.47Z"/><path class="cls-10" d="M275,159.17V157.7h3.51v-6.95h-3.06v-1.48h4.68v8.43h3.33v1.47Zm4-11.61a1.24,1.24,0,0,1-.86-.29,1,1,0,0,1-.31-.77,1,1,0,0,1,.32-.79,1.17,1.17,0,0,1,.85-.31h.36a1.13,1.13,0,0,1,.84.31,1,1,0,0,1,.33.79,1,1,0,0,1-.33.77,1.21,1.21,0,0,1-.84.29Z"/><path class="cls-10" d="M289.78,159.35a4.38,4.38,0,0,1-2-.45,3.12,3.12,0,0,1-1.32-1.3,4.31,4.31,0,0,1-.46-2v-2.7a4.27,4.27,0,0,1,.46-2,3.15,3.15,0,0,1,1.32-1.31,4.38,4.38,0,0,1,2-.45,4.31,4.31,0,0,1,2,.45,3.11,3.11,0,0,1,1.33,1.31,4.22,4.22,0,0,1,.45,2v2.72a4.31,4.31,0,0,1-.45,2,3.09,3.09,0,0,1-1.33,1.3A4.31,4.31,0,0,1,289.78,159.35Zm0-1.44a2.14,2.14,0,0,0,1.63-.6,2.43,2.43,0,0,0,.56-1.74v-2.7a2.46,2.46,0,0,0-.56-1.74,2.51,2.51,0,0,0-3.26,0,2.47,2.47,0,0,0-.57,1.74v2.7a2.43,2.43,0,0,0,.57,1.74A2.14,2.14,0,0,0,289.78,157.91Z"/><path class="cls-10" d="M296.83,159.17v-9.9h1.62v1.89h.35l-.35.38a2.32,2.32,0,0,1,.71-1.8,2.74,2.74,0,0,1,1.94-.65,3.13,3.13,0,0,1,2.38.93,3.5,3.5,0,0,1,.88,2.49v6.66h-1.62v-6.48a2.29,2.29,0,0,0-.57-1.64,2.31,2.31,0,0,0-3.14,0,2.57,2.57,0,0,0-.58,1.77v6.3Z"/><path class="cls-8" d="M314.71,161.42a6.93,6.93,0,0,1-4-2.48,7.23,7.23,0,0,1-1.42-4.54V151a7.74,7.74,0,0,1,.65-3.19,6.66,6.66,0,0,1,1.88-2.42,7.29,7.29,0,0,1,2.87-1.41v1.53a4.61,4.61,0,0,0-2.76,1.89,6.2,6.2,0,0,0-1,3.6v3.42a6.13,6.13,0,0,0,1,3.55,4.56,4.56,0,0,0,2.77,1.87Z"/><path class="cls-8" d="M318.85,159.82a4.57,4.57,0,0,0,2.76-1.87,6.06,6.06,0,0,0,1-3.55V151a6.14,6.14,0,0,0-1-3.6,4.56,4.56,0,0,0-2.75-1.89V144a7.35,7.35,0,0,1,2.87,1.41,6.64,6.64,0,0,1,1.87,2.42,7.59,7.59,0,0,1,.66,3.19v3.42a7.3,7.3,0,0,1-1.42,4.54,7,7,0,0,1-4,2.48Z"/><path class="cls-8" d="M131.11,183a7,7,0,0,1-4-2.48,7.23,7.23,0,0,1-1.42-4.54v-3.42a7.54,7.54,0,0,1,.66-3.18,6.67,6.67,0,0,1,1.87-2.43,7.35,7.35,0,0,1,2.87-1.41v1.53a4.56,4.56,0,0,0-2.75,1.89,6.14,6.14,0,0,0-1,3.6V176a6,6,0,0,0,1,3.55,4.57,4.57,0,0,0,2.76,1.87Z"/><path class="cls-11" d="M134.71,172.4l1.44-5.6h2.34l-2.34,5.6Zm4.14,0,1.44-5.6h2.34l-2.34,5.6Z"/><path class="cls-11" d="M149.45,181a4.51,4.51,0,0,1-2.07-.45,3.08,3.08,0,0,1-1.35-1.3,4.2,4.2,0,0,1-.47-2v-5.94a4.16,4.16,0,0,1,.47-2,3.11,3.11,0,0,1,1.35-1.31,4.51,4.51,0,0,1,2.07-.45,4.33,4.33,0,0,1,2.05.46,3.25,3.25,0,0,1,1.34,1.31,4.14,4.14,0,0,1,.46,2h-1.62a2.41,2.41,0,0,0-.58-1.73,2.2,2.2,0,0,0-1.65-.61,2.24,2.24,0,0,0-1.66.61,2.35,2.35,0,0,0-.61,1.71v6a2.36,2.36,0,0,0,.6,1.73,2.2,2.2,0,0,0,1.67.61,2.17,2.17,0,0,0,1.65-.61,2.4,2.4,0,0,0,.58-1.73h1.62a4.14,4.14,0,0,1-.46,2,3.19,3.19,0,0,1-1.34,1.31A4.33,4.33,0,0,1,149.45,181Z"/><path class="cls-11" d="M159.26,181a3.5,3.5,0,0,1-2.41-.79A2.71,2.71,0,0,1,156,178a2.87,2.87,0,0,1,.89-2.23,3.51,3.51,0,0,1,2.44-.81h3.06v-1a1.74,1.74,0,0,0-.57-1.39,2.29,2.29,0,0,0-1.57-.5,2.7,2.7,0,0,0-1.46.36,1.37,1.37,0,0,0-.67,1h-1.62a2.86,2.86,0,0,1,1.19-2,4.2,4.2,0,0,1,2.58-.76,4,4,0,0,1,2.73.87,3,3,0,0,1,1,2.39v6.8h-1.58v-1.89H162l.38-.2a1.92,1.92,0,0,1-.89,1.65A3.79,3.79,0,0,1,159.26,181Zm.38-1.28a3.19,3.19,0,0,0,1.94-.56,1.77,1.77,0,0,0,.76-1.49v-1.4h-3a1.77,1.77,0,0,0-1.28.45,1.83,1.83,0,0,0,.09,2.54A2.27,2.27,0,0,0,159.64,179.67Z"/><path class="cls-11" d="M172.15,180.77a2.88,2.88,0,0,1-2.1-.76,2.72,2.72,0,0,1-.78-2v-8.87h-3v-1.48h4.59V178a1.3,1.3,0,0,0,.34,1,1.22,1.22,0,0,0,.92.36h3.33v1.47Z"/><path class="cls-11" d="M182.86,180.77a2.79,2.79,0,0,1-2-.68,2.57,2.57,0,0,1-.71-1.93v-5.81h-2.79v-1.48h2.79v-2.7h1.62v2.7h4v1.48h-4v5.81a1.24,1.24,0,0,0,.26.86,1.11,1.11,0,0,0,.82.28h2.7v1.47Z"/><path class="cls-11" d="M192.58,181a4.21,4.21,0,0,1-2-.47,3.25,3.25,0,0,1-1.33-1.32,4.09,4.09,0,0,1-.47-2v-2.7a4.12,4.12,0,0,1,.47-2,3.25,3.25,0,0,1,1.33-1.32,4.58,4.58,0,0,1,4,0,3.25,3.25,0,0,1,1.33,1.32,4.12,4.12,0,0,1,.47,2v1.75h-6.05v.95a2.56,2.56,0,0,0,.57,1.8,2.13,2.13,0,0,0,1.66.61,2.85,2.85,0,0,0,1.48-.33,1.39,1.39,0,0,0,.68-1h1.62a2.73,2.73,0,0,1-1.19,2A4.33,4.33,0,0,1,192.58,181Zm2.23-6.48a2.65,2.65,0,0,0-.56-1.81,2.17,2.17,0,0,0-1.67-.62,2.14,2.14,0,0,0-1.66.62,2.6,2.6,0,0,0-.57,1.81V175h4.59l-.13.15Z"/><path class="cls-11" d="M203.45,181a4.51,4.51,0,0,1-2.07-.45,3.08,3.08,0,0,1-1.35-1.3,4.2,4.2,0,0,1-.47-2v-2.7a4.16,4.16,0,0,1,.47-2,3.11,3.11,0,0,1,1.35-1.31,4.51,4.51,0,0,1,2.07-.45,4.05,4.05,0,0,1,2.76.92,3.32,3.32,0,0,1,1.09,2.5h-1.62a2,2,0,0,0-.64-1.46,2.34,2.34,0,0,0-1.59-.52,2.24,2.24,0,0,0-1.66.61,2.31,2.31,0,0,0-.61,1.71v2.72a2.36,2.36,0,0,0,.6,1.73,2.2,2.2,0,0,0,1.67.61A2.29,2.29,0,0,0,205,179a2,2,0,0,0,.64-1.46h1.62a3.3,3.3,0,0,1-1.09,2.5A4,4,0,0,1,203.45,181Z"/><path class="cls-11" d="M210.44,180.77V167.63h1.62v5.13h.34l-.34.38a2.31,2.31,0,0,1,.7-1.8,2.76,2.76,0,0,1,1.94-.65,3.13,3.13,0,0,1,2.38.93,3.46,3.46,0,0,1,.88,2.49v6.66h-1.62v-6.48a2.29,2.29,0,0,0-.57-1.64,2.31,2.31,0,0,0-3.14,0,2.56,2.56,0,0,0-.57,1.77v6.3Z"/><path class="cls-11" d="M221.11,172.4l1.44-5.6h2.34l-2.34,5.6Zm4.14,0,1.44-5.6H229l-2.34,5.6Z"/><path class="cls-8" d="M233.35,183.65l1.44-5.6h2.34l-2.34,5.6Z"/><path class="cls-12" d="M253.63,180.77v-1.65l4-4.27a10.12,10.12,0,0,0,1.49-1.95,3.35,3.35,0,0,0,.47-1.65,2.41,2.41,0,0,0-.6-1.73,2.17,2.17,0,0,0-1.65-.63,2.48,2.48,0,0,0-1.81.65,2.38,2.38,0,0,0-.65,1.78h-1.63a4.37,4.37,0,0,1,.55-2,3.45,3.45,0,0,1,1.43-1.35,4.56,4.56,0,0,1,2.11-.47,4.33,4.33,0,0,1,2.05.46,3.16,3.16,0,0,1,1.35,1.31,4.15,4.15,0,0,1,.47,2,4.7,4.7,0,0,1-.59,2.22,12.53,12.53,0,0,1-1.95,2.5l-3.24,3.35h6v1.47Z"/><path class="cls-12" d="M268.18,181a4.37,4.37,0,0,1-2.1-.48,3.32,3.32,0,0,1-1.38-1.35,4.16,4.16,0,0,1-.48-2v-5.76a4.16,4.16,0,0,1,.48-2,3.45,3.45,0,0,1,1.38-1.35,4.83,4.83,0,0,1,4.2,0,3.36,3.36,0,0,1,1.37,1.35,4.05,4.05,0,0,1,.49,2v5.76a4.11,4.11,0,0,1-.49,2,3.27,3.27,0,0,1-1.38,1.35A4.38,4.38,0,0,1,268.18,181Zm0-1.38a2.3,2.3,0,0,0,1.74-.7,2.52,2.52,0,0,0,.65-1.79v-5.76a2.52,2.52,0,0,0-.65-1.79,2.54,2.54,0,0,0-3.48,0,2.49,2.49,0,0,0-.66,1.79v5.76a2.49,2.49,0,0,0,.66,1.79A2.3,2.3,0,0,0,268.18,179.57Zm0-4.29a.85.85,0,0,1-.65-.27,1,1,0,0,1-.25-.72V174a1,1,0,0,1,.25-.72.85.85,0,0,1,.65-.27.87.87,0,0,1,.66.27,1,1,0,0,1,.24.72v.27a1,1,0,0,1-.24.72A.87.87,0,0,1,268.18,175.28Z"/><path class="cls-12" d="M275.23,180.77v-1.65l4-4.27a10.12,10.12,0,0,0,1.49-1.95,3.46,3.46,0,0,0,.47-1.65,2.41,2.41,0,0,0-.6-1.73,2.17,2.17,0,0,0-1.65-.63,2.48,2.48,0,0,0-1.81.65,2.38,2.38,0,0,0-.66,1.78h-1.62a4.37,4.37,0,0,1,.55-2,3.45,3.45,0,0,1,1.43-1.35,4.56,4.56,0,0,1,2.11-.47,4.33,4.33,0,0,1,2.05.46,3.16,3.16,0,0,1,1.35,1.31,4.15,4.15,0,0,1,.47,2,4.7,4.7,0,0,1-.59,2.22,12.53,12.53,0,0,1-1.95,2.5l-3.24,3.35h6v1.47Z"/><path class="cls-12" d="M289.58,181a4.45,4.45,0,0,1-2.07-.47,3.3,3.3,0,0,1-1.39-1.33,4,4,0,0,1-.48-2h1.62a2.15,2.15,0,0,0,2.34,2.34,2.29,2.29,0,0,0,1.72-.64,2.34,2.34,0,0,0,.62-1.7v-.93a2.37,2.37,0,0,0-.61-1.73,2.34,2.34,0,0,0-1.73-.61h-1.35v-1.62l3.26-3.17h-5.33v-1.48h7v1.62l-3.51,3.4v-.19a4,4,0,0,1,2.87,1,3.69,3.69,0,0,1,1.06,2.76v.93a3.88,3.88,0,0,1-.5,2,3.27,3.27,0,0,1-1.4,1.33A4.52,4.52,0,0,1,289.58,181Z"/><path class="cls-8" d="M297.25,181.42a4.57,4.57,0,0,0,2.76-1.87,6,6,0,0,0,1-3.55v-3.42a6.14,6.14,0,0,0-1-3.6,4.56,4.56,0,0,0-2.75-1.89v-1.53a7.35,7.35,0,0,1,2.87,1.41A6.67,6.67,0,0,1,302,169.4a7.54,7.54,0,0,1,.66,3.18V176a7.3,7.3,0,0,1-1.42,4.54,7,7,0,0,1-4,2.48Z"/></g><rect class="cls-1" x="179" y="-137" width="800" height="200"/></svg>
